<svg width="266" height="36" viewBox="0 0 266 36" fill="none" xmlns="http://www.w3.org/2000/svg">
<path d="M5.45 30.75C4.58333 30.75 3.71667 30.6833 2.85 30.55C2.01667 30.4167 1.35 30.2833 0.85 30.15V27.15C1.08333 27.2167 1.35 27.2833 1.65 27.35C1.98333 27.3833 2.31667 27.4 2.65 27.4C3.11667 27.4 3.6 27.3333 4.1 27.2C4.63333 27.0667 4.96667 26.6667 5.1 26C5.16667 25.6667 5.2 25.3333 5.2 25C5.23333 24.6333 5.23333 24.1667 5.2 23.6L0.35 0.449999H6.25L9.2 19.5H9.25L12.25 0.449999H17.7L12.9 22.8C12.3 25.6667 11.4333 27.7167 10.3 28.95C9.2 30.15 7.58333 30.75 5.45 30.75ZM20.1176 30V0.449999H30.6176C32.4842 0.449999 33.9009 0.899999 34.8676 1.8C35.8676 2.66666 36.3676 3.88333 36.3676 5.45V8.8C36.3676 9.66667 36.2342 10.4667 35.9676 11.2C35.7342 11.9 35.3676 12.5 34.8676 13C34.5009 13.3667 34.0342 13.65 33.4676 13.85C32.9009 14.05 32.3509 14.1667 31.8176 14.2V14.25C32.3842 14.25 32.9342 14.3167 33.4676 14.45C34.0009 14.5833 34.5009 14.85 34.9676 15.25C35.5342 15.6833 35.9842 16.2833 36.3176 17.05C36.6509 17.7833 36.8176 18.7 36.8176 19.8V23.85C36.8176 25.45 36.5342 26.7 35.9676 27.6C35.4342 28.5 34.6509 29.1333 33.6176 29.5C32.6176 29.8333 31.4176 30 30.0176 30H20.1176ZM25.9676 26.95H28.6676C29.1676 26.95 29.5676 26.8667 29.8676 26.7C30.2009 26.5 30.4509 26.15 30.6176 25.65C30.8176 25.15 30.9176 24.4167 30.9176 23.45V19.95C30.9176 18.6167 30.6842 17.75 30.2176 17.35C29.7842 16.9167 29.2009 16.7 28.4676 16.7H25.9676V26.95ZM25.9676 13.05H28.3176C29.0842 13.05 29.6842 12.7833 30.1176 12.25C30.5842 11.7167 30.8176 10.7833 30.8176 9.45V6.5C30.8176 5.46666 30.6176 4.73333 30.2176 4.3C29.8509 3.83333 29.3676 3.6 28.7676 3.6H25.9676V13.05ZM40.4301 30V0.449999H45.5301V18.4L51.6801 0.449999H56.7801V30H51.6301V13.25L45.5301 30H40.4301ZM59.6879 35.7V26.3H62.3379C62.9712 26.2333 63.5546 25.8333 64.0879 25.1C64.6212 24.3667 64.9546 23.4 65.0879 22.2C65.2212 20.9667 65.3712 19.5833 65.5379 18.05C65.7046 16.4833 65.8712 14.8833 66.0379 13.25C66.2046 11.5833 66.3379 9.95 66.4379 8.35C66.5712 6.75 66.6879 5.26667 66.7879 3.9C66.8879 2.53333 66.9546 1.38333 66.9879 0.449999H82.1879V26.3H87.1879V35.7H82.3879V31.1H64.4379V35.7H59.6879ZM69.4379 26.3H76.4879V4.55H72.4379C72.1712 7.38333 71.9212 10.2167 71.6879 13.05C71.4879 15.8833 71.2712 18.7167 71.0379 21.55C70.9379 22.45 70.7712 23.3833 70.5379 24.35C70.3379 25.2833 69.9712 25.9333 69.4379 26.3ZM90.2836 30V0.449999H103.884V4.55H96.3336V12.45H102.734V17H96.3336V26H103.884V30H90.2836ZM105.383 30V27C105.983 27 106.549 26.6333 107.083 25.9C107.649 25.1667 107.966 24.2667 108.033 23.2L109.633 0.449999H125.583V30H119.783V4.55H115.333L113.833 24.7C113.766 25.3 113.699 25.9167 113.633 26.55C113.566 27.15 113.383 27.7167 113.083 28.25C112.816 28.75 112.366 29.1667 111.733 29.5C111.099 29.8 110.216 29.9667 109.083 30H105.383ZM137.647 30V0.449999H142.747V18.4L148.897 0.449999H153.997V30H148.847V13.25L142.747 30H137.647ZM166.455 30V0.449999H172.255V13.3H174.155L179.155 0.449999H185.405L179.405 14.65L185.555 30H179.255L174.405 17.15H172.255V30H166.455ZM191.143 30.75C190.277 30.75 189.41 30.6833 188.543 30.55C187.71 30.4167 187.043 30.2833 186.543 30.15V27.15C186.777 27.2167 187.043 27.2833 187.343 27.35C187.677 27.3833 188.01 27.4 188.343 27.4C188.81 27.4 189.293 27.3333 189.793 27.2C190.327 27.0667 190.66 26.6667 190.793 26C190.86 25.6667 190.893 25.3333 190.893 25C190.927 24.6333 190.927 24.1667 190.893 23.6L186.043 0.449999H191.943L194.893 19.5H194.943L197.943 0.449999H203.393L198.593 22.8C197.993 25.6667 197.127 27.7167 195.993 28.95C194.893 30.15 193.277 30.75 191.143 30.75ZM205.811 30V0.449999H222.361V30H216.311V4.55H211.861V30H205.811ZM226.563 30V0.449999H231.663V18.4L237.813 0.449999H242.913V30H237.763V13.25L231.663 30H226.563ZM245.471 30V27C246.071 27 246.637 26.6333 247.171 25.9C247.737 25.1667 248.054 24.2667 248.121 23.2L249.721 0.449999H265.671V30H259.871V4.55H255.421L253.921 24.7C253.854 25.3 253.787 25.9167 253.721 26.55C253.654 27.15 253.471 27.7167 253.171 28.25C252.904 28.75 252.454 29.1667 251.821 29.5C251.187 29.8 250.304 29.9667 249.171 30H245.471Z" fill="#F2F0E5"/>
</svg>
