<svg width="187" height="87" viewBox="0 0 187 87" fill="none" xmlns="http://www.w3.org/2000/svg">
<path d="M102.37 78.21C101.19 78.21 100.27 78.07 99.61 77.79C98.95 77.49 98.49 77.02 98.23 76.38C97.97 75.74 97.84 74.93 97.84 73.95V72.72H100.69V74.58C100.69 75.34 100.8 75.88 101.02 76.2C101.26 76.5 101.7 76.65 102.34 76.65C102.9 76.65 103.3 76.5 103.54 76.2C103.8 75.9 103.93 75.43 103.93 74.79V73.77C103.93 73.31 103.84 72.93 103.66 72.63C103.5 72.31 103.23 72.04 102.85 71.82C102.47 71.6 101.97 71.36 101.35 71.1C100.77 70.86 100.23 70.6 99.73 70.32C99.25 70.04 98.86 69.67 98.56 69.21C98.28 68.75 98.14 68.16 98.14 67.44V66.54C98.14 65.36 98.47 64.46 99.13 63.84C99.79 63.22 100.95 62.91 102.61 62.91C103.69 62.91 104.54 63.05 105.16 63.33C105.8 63.61 106.25 64.06 106.51 64.68C106.79 65.28 106.93 66.06 106.93 67.02V68.16H104.2V66.6C104.2 65.8 104.07 65.25 103.81 64.95C103.57 64.63 103.17 64.47 102.61 64.47C101.99 64.47 101.57 64.63 101.35 64.95C101.13 65.27 101.02 65.66 101.02 66.12V67.11C101.02 67.65 101.15 68.08 101.41 68.4C101.69 68.7 102.05 68.95 102.49 69.15C102.93 69.33 103.43 69.54 103.99 69.78C104.53 69.98 105.02 70.22 105.46 70.5C105.92 70.76 106.28 71.12 106.54 71.58C106.8 72.02 106.93 72.62 106.93 73.38V74.19C106.93 75.07 106.79 75.81 106.51 76.41C106.23 76.99 105.76 77.44 105.1 77.76C104.44 78.06 103.53 78.21 102.37 78.21ZM109.101 78V63.15H111.471L111.741 64.83C111.921 64.23 112.281 63.75 112.821 63.39C113.381 63.03 113.981 62.85 114.621 62.85C115.601 62.85 116.331 63.03 116.811 63.39C117.311 63.73 117.641 64.2 117.801 64.8C117.961 65.38 118.041 66.05 118.041 66.81V78H115.221V67.02C115.221 66.74 115.211 66.48 115.191 66.24C115.171 65.98 115.111 65.75 115.011 65.55C114.911 65.35 114.751 65.19 114.531 65.07C114.311 64.95 113.991 64.89 113.571 64.89C113.231 64.89 112.941 64.95 112.701 65.07C112.481 65.19 112.311 65.34 112.191 65.52C112.071 65.68 111.981 65.84 111.921 66V78H109.101ZM124.669 78.24C123.649 78.24 122.799 78.13 122.119 77.91C121.459 77.67 120.959 77.22 120.619 76.56C120.299 75.9 120.139 74.91 120.139 73.59V66.63C120.139 65.19 120.499 64.21 121.219 63.69C121.939 63.15 123.059 62.88 124.579 62.88C126.099 62.88 127.219 63.15 127.939 63.69C128.659 64.21 129.019 65.19 129.019 66.63V70.59H122.959V74.7C122.959 75.44 123.069 75.96 123.289 76.26C123.529 76.56 123.979 76.71 124.639 76.71C125.239 76.71 125.649 76.57 125.869 76.29C126.089 75.99 126.199 75.46 126.199 74.7V72.51H129.019V73.56C129.019 74.86 128.849 75.85 128.509 76.53C128.189 77.21 127.709 77.67 127.069 77.91C126.429 78.13 125.629 78.24 124.669 78.24ZM122.959 69.27H126.199V66.51C126.199 65.83 126.089 65.34 125.869 65.04C125.649 64.74 125.219 64.59 124.579 64.59C123.959 64.59 123.529 64.74 123.289 65.04C123.069 65.34 122.959 65.83 122.959 66.51V69.27ZM133.831 78.24C133.331 78.24 132.851 78.17 132.391 78.03C131.951 77.89 131.571 77.6 131.251 77.16C130.951 76.7 130.801 76 130.801 75.06V73.29C130.801 72.31 131.081 71.53 131.641 70.95C132.221 70.35 133.081 69.82 134.221 69.36C134.881 69.08 135.401 68.83 135.781 68.61C136.181 68.39 136.471 68.13 136.651 67.83C136.831 67.53 136.921 67.12 136.921 66.6V65.85C136.921 65.47 136.841 65.18 136.681 64.98C136.541 64.78 136.351 64.64 136.111 64.56C135.891 64.46 135.631 64.41 135.331 64.41C134.671 64.41 134.231 64.61 134.011 65.01C133.811 65.41 133.711 66.05 133.711 66.93V68.19H131.161V66.66C131.161 65.92 131.261 65.27 131.461 64.71C131.661 64.13 132.061 63.68 132.661 63.36C133.261 63.02 134.151 62.85 135.331 62.85C136.551 62.85 137.471 62.97 138.091 63.21C138.731 63.45 139.171 63.82 139.411 64.32C139.651 64.8 139.771 65.42 139.771 66.18V78H136.951V76.29C136.751 76.91 136.351 77.39 135.751 77.73C135.171 78.07 134.531 78.24 133.831 78.24ZM135.001 76.35C135.681 76.35 136.161 76.11 136.441 75.63C136.741 75.13 136.891 74.44 136.891 73.56V69.39C136.751 69.63 136.501 69.85 136.141 70.05C135.781 70.25 135.431 70.46 135.091 70.68C134.591 70.98 134.211 71.3 133.951 71.64C133.691 71.96 133.561 72.41 133.561 72.99V74.4C133.561 74.94 133.621 75.36 133.741 75.66C133.881 75.94 134.061 76.13 134.281 76.23C134.521 76.31 134.761 76.35 135.001 76.35ZM148.357 78L145.297 69.39L148.627 63.15H151.417L147.997 69.42L151.417 78H148.357ZM142.147 78V59.01H144.967V78H142.147ZM156.779 78.24C155.759 78.24 154.909 78.13 154.229 77.91C153.569 77.67 153.069 77.22 152.729 76.56C152.409 75.9 152.249 74.91 152.249 73.59V66.63C152.249 65.19 152.609 64.21 153.329 63.69C154.049 63.15 155.169 62.88 156.689 62.88C158.209 62.88 159.329 63.15 160.049 63.69C160.769 64.21 161.129 65.19 161.129 66.63V70.59H155.069V74.7C155.069 75.44 155.179 75.96 155.399 76.26C155.639 76.56 156.089 76.71 156.749 76.71C157.349 76.71 157.759 76.57 157.979 76.29C158.199 75.99 158.309 75.46 158.309 74.7V72.51H161.129V73.56C161.129 74.86 160.959 75.85 160.619 76.53C160.299 77.21 159.819 77.67 159.179 77.91C158.539 78.13 157.739 78.24 156.779 78.24ZM155.069 69.27H158.309V66.51C158.309 65.83 158.199 65.34 157.979 65.04C157.759 64.74 157.329 64.59 156.689 64.59C156.069 64.59 155.639 64.74 155.399 65.04C155.179 65.34 155.069 65.83 155.069 66.51V69.27ZM163.27 78V63.15H165.67L165.91 64.86C166.11 64.36 166.42 63.99 166.84 63.75C167.26 63.49 167.69 63.31 168.13 63.21C168.75 62.99 169.38 62.95 170.02 63.09V65.28C169.96 65.26 169.81 65.24 169.57 65.22C169.33 65.18 169.06 65.17 168.76 65.19C168.46 65.21 168.2 65.28 167.98 65.4C167.4 65.54 166.94 65.83 166.6 66.27C166.26 66.69 166.09 67.22 166.09 67.86V78H163.27ZM175.495 78.21C174.315 78.21 173.395 78.07 172.735 77.79C172.075 77.49 171.615 77.02 171.355 76.38C171.095 75.74 170.965 74.93 170.965 73.95V72.72H173.815V74.58C173.815 75.34 173.925 75.88 174.145 76.2C174.385 76.5 174.825 76.65 175.465 76.65C176.025 76.65 176.425 76.5 176.665 76.2C176.925 75.9 177.055 75.43 177.055 74.79V73.77C177.055 73.31 176.965 72.93 176.785 72.63C176.625 72.31 176.355 72.04 175.975 71.82C175.595 71.6 175.095 71.36 174.475 71.1C173.895 70.86 173.355 70.6 172.855 70.32C172.375 70.04 171.985 69.67 171.685 69.21C171.405 68.75 171.265 68.16 171.265 67.44V66.54C171.265 65.36 171.595 64.46 172.255 63.84C172.915 63.22 174.075 62.91 175.735 62.91C176.815 62.91 177.665 63.05 178.285 63.33C178.925 63.61 179.375 64.06 179.635 64.68C179.915 65.28 180.055 66.06 180.055 67.02V68.16H177.325V66.6C177.325 65.8 177.195 65.25 176.935 64.95C176.695 64.63 176.295 64.47 175.735 64.47C175.115 64.47 174.695 64.63 174.475 64.95C174.255 65.27 174.145 65.66 174.145 66.12V67.11C174.145 67.65 174.275 68.08 174.535 68.4C174.815 68.7 175.175 68.95 175.615 69.15C176.055 69.33 176.555 69.54 177.115 69.78C177.655 69.98 178.145 70.22 178.585 70.5C179.045 70.76 179.405 71.12 179.665 71.58C179.925 72.02 180.055 72.62 180.055 73.38V74.19C180.055 75.07 179.915 75.81 179.635 76.41C179.355 76.99 178.885 77.44 178.225 77.76C177.565 78.06 176.655 78.21 175.495 78.21Z" fill="#F2F0E5"/>
<path d="M7.27539 57.6113C4.41081 57.2207 2.66927 55.707 2.05078 53.0703L2.09961 52.5332C2.22982 52.1426 2.3763 51.7031 2.53906 51.2148C2.70182 50.6615 2.88086 50.1243 3.07617 49.6035C3.27148 49.0501 3.59701 48.5618 4.05273 48.1387C4.15039 47.8457 4.32943 47.4062 4.58984 46.8203C4.88281 46.2018 5.35482 45.2904 6.00586 44.0859C6.52669 43.1419 6.93359 42.3932 7.22656 41.8398C7.55208 41.2865 7.8125 40.8633 8.00781 40.5703C7.68229 39.9844 7.22656 39.4147 6.64062 38.8613C6.11979 37.8848 5.66406 36.957 5.27344 36.0781C4.91536 35.1667 4.63867 34.3529 4.44336 33.6367C4.41081 32.8555 4.2806 32.0579 4.05273 31.2441C3.95508 30.821 3.85742 30.3978 3.75977 29.9746C3.66211 29.5514 3.61328 29.112 3.61328 28.6562C3.48307 28.4284 3.36914 28.1354 3.27148 27.7773L3.36914 27.1914C3.5319 26.931 3.56445 26.5892 3.4668 26.166C3.40169 25.7103 3.30404 25.2546 3.17383 24.7988C3.07617 24.3757 2.97852 23.9362 2.88086 23.4805C2.81576 22.9922 2.79948 22.5202 2.83203 22.0645C2.86458 21.6087 2.97852 21.1693 3.17383 20.7461C3.40169 20.3229 3.77604 19.9648 4.29688 19.6719L4.78516 19.3301L5.27344 19.623C5.63151 19.8509 5.97331 20.0462 6.29883 20.209C6.62435 20.3717 6.94987 20.5345 7.27539 20.6973C7.66602 20.8926 8.05664 21.1042 8.44727 21.332C8.83789 21.5273 9.26107 21.7552 9.7168 22.0156L10.2051 22.3574L10.1562 22.8945C10.1562 22.9596 10.1725 23.041 10.2051 23.1387C10.2376 23.2363 10.2865 23.3177 10.3516 23.3828L10.8887 23.5293L10.9375 24.2129V24.7988C10.9375 25.0918 10.9538 25.3034 10.9863 25.4336C11.0189 25.5312 11.084 25.6452 11.1816 25.7754L11.4258 26.4102C11.4258 26.9961 11.4746 27.5169 11.5723 27.9727C11.6699 28.4284 11.7839 28.8841 11.9141 29.3398C12.0768 29.7956 12.207 30.2676 12.3047 30.7559C12.4023 31.2116 12.4186 31.7161 12.3535 32.2695C12.5488 32.1719 12.7441 32.0254 12.9395 31.8301C13.0046 31.765 13.0697 31.6999 13.1348 31.6348C13.2324 31.5697 13.3301 31.5046 13.4277 31.4395L16.8457 26.8008L16.748 26.2148L17.9688 25.043C18.2943 24.7826 18.6035 24.5221 18.8965 24.2617C19.1895 23.9688 19.4336 23.6432 19.6289 23.2852L19.9219 22.8457C21.3867 20.8926 23.2747 19.6882 25.5859 19.2324L26.416 19.0371L26.6602 19.8184C26.8229 20.2741 27.1322 20.681 27.5879 21.0391C28.0762 21.3646 28.597 21.6901 29.1504 22.0156L29.6875 22.3574C29.8828 22.748 29.9805 23.041 29.9805 23.2363C29.9805 23.4316 29.9642 23.5944 29.9316 23.7246L30.1758 24.3594C29.8177 25.3034 29.4271 25.987 29.0039 26.4102C28.5807 26.8008 28.1413 27.1751 27.6855 27.5332C27.3275 27.8262 27.002 28.1191 26.709 28.4121C26.416 28.7051 26.1882 29.0306 26.0254 29.3887L25.6348 29.877C24.821 30.3001 24.3001 30.9186 24.0723 31.7324L23.877 32.416H23.1445C23.112 32.416 23.0306 32.4974 22.9004 32.6602C22.7702 32.7904 22.5749 33.1322 22.3145 33.6855C22.0215 34.0762 21.8099 34.3366 21.6797 34.4668C21.582 34.5645 21.5007 34.6458 21.4355 34.7109C21.3704 34.8737 21.3053 35.0202 21.2402 35.1504C21.2077 35.2806 21.1589 35.4434 21.0938 35.6387L20.8008 36.0293C20.5078 36.2897 20.2962 36.5501 20.166 36.8105C20.0358 37.0384 19.8893 37.3151 19.7266 37.6406C19.5964 37.9336 19.4499 38.2428 19.2871 38.5684C19.1243 38.8613 18.8965 39.1543 18.6035 39.4473L18.7012 39.9844L18.3105 40.3262C18.0501 40.554 17.8223 40.847 17.627 41.2051C17.4316 41.5306 17.2363 41.8724 17.041 42.2305C16.8457 42.6211 16.6341 43.0117 16.4062 43.4023C16.1784 43.793 15.8854 44.151 15.5273 44.4766C15.2995 45.0625 15.0879 45.5182 14.8926 45.8438C14.7298 46.1693 14.4368 46.5599 14.0137 47.0156C13.623 48.5781 12.6953 50.2546 11.2305 52.0449C11.1979 52.403 11.084 52.7611 10.8887 53.1191C10.7259 53.4447 10.5469 53.7539 10.3516 54.0469C10.2865 54.1771 10.2051 54.3236 10.1074 54.4863C10.0423 54.6165 9.99349 54.7142 9.96094 54.7793L9.81445 55.3164C9.61914 55.6745 9.40755 55.9674 9.17969 56.1953C8.98438 56.4232 8.78906 56.6348 8.59375 56.8301C8.49609 56.8952 8.39844 56.9766 8.30078 57.0742C8.23568 57.1719 8.17057 57.2533 8.10547 57.3184L7.27539 57.6113ZM22.4121 51.3613L23.0469 50.873L23.0957 49.8477C23.9095 47.862 24.7396 45.9577 25.5859 44.1348C26.4648 42.3118 27.3763 40.4401 28.3203 38.5195C28.6133 37.901 28.9062 37.2826 29.1992 36.6641C29.5247 36.0456 29.834 35.4108 30.127 34.7598C30.0944 34.6296 30.0781 34.4993 30.0781 34.3691C30.0781 34.2064 30.1107 34.0273 30.1758 33.832C30.6315 33.181 30.9896 32.5951 31.25 32.0742C31.543 31.5534 31.8197 31.0163 32.0801 30.4629C32.373 29.8118 32.6823 29.1608 33.0078 28.5098C33.3659 27.8587 33.8053 27.224 34.3262 26.6055L34.668 26.1172L35.2051 26.166C35.3353 26.1009 35.4655 26.0521 35.5957 26.0195C35.7585 25.9544 35.9538 25.9219 36.1816 25.9219L37.0605 26.0684C38.1348 25.5801 39.0788 24.8802 39.8926 23.9688C40.7389 23.0247 41.5853 21.9017 42.4316 20.5996L43.0176 19.7695L43.7988 20.2578C43.9616 20.3555 44.222 20.4531 44.5801 20.5508C44.9382 20.6484 45.3125 20.7624 45.7031 20.8926C46.3867 21.0553 47.054 21.2507 47.7051 21.4785C48.3561 21.6738 48.8607 21.9505 49.2188 22.3086L49.4629 22.748C49.528 23.1061 49.5768 23.4316 49.6094 23.7246C49.6745 24.0176 49.7396 24.3105 49.8047 24.6035C49.9349 25.2871 50.0488 25.9707 50.1465 26.6543C50.2441 27.3053 50.3092 28.0378 50.3418 28.8516C50.5046 29.5026 50.651 30.1699 50.7812 30.8535C50.944 31.5046 51.0905 32.1556 51.2207 32.8066C51.3835 33.7507 51.5625 34.6621 51.7578 35.541C51.9531 36.3874 52.2135 37.2012 52.5391 37.9824C52.8646 37.9824 53.0599 37.9987 53.125 38.0312C53.5156 37.8685 53.9714 37.7708 54.4922 37.7383L55.127 37.6895L55.3223 38.2754C55.3874 38.373 55.4688 38.4707 55.5664 38.5684C55.6641 38.666 55.778 38.7637 55.9082 38.8613C56.429 38.8939 56.8034 39.0078 57.0312 39.2031C57.2917 39.3659 57.5033 39.5286 57.666 39.6914C57.7311 39.7565 57.8125 39.8379 57.9102 39.9355C58.0078 40.0007 58.0892 40.0495 58.1543 40.082L59.0332 40.4238L58.5449 41.3516C58.1868 42.0352 57.6335 42.7025 56.8848 43.3535C56.1686 44.0046 55.3548 44.5417 54.4434 44.9648C54.5085 45.1927 54.541 45.4043 54.541 45.5996C54.5736 45.7949 54.6224 46.0228 54.6875 46.2832C54.8177 46.9342 54.9154 47.6178 54.9805 48.334C55.0781 49.0176 55.0781 49.7337 54.9805 50.4824C54.6549 51.3288 54.2643 52.0938 53.8086 52.7773C53.3854 53.4284 52.8646 54.0306 52.2461 54.584C51.6602 55.1048 50.9928 55.5443 50.2441 55.9023C49.4954 56.2279 48.7142 56.4069 47.9004 56.4395C47.4447 56.3418 47.1029 56.2279 46.875 56.0977C46.6797 55.9674 46.5007 55.8372 46.3379 55.707C46.0775 55.5117 45.8659 55.3815 45.7031 55.3164L45.0684 55.0234L45.2637 54.291C45.3613 54.0306 45.3451 53.8027 45.2148 53.6074C45.1172 53.4121 44.8893 53.1517 44.5312 52.8262C44.401 52.7285 44.2871 52.6309 44.1895 52.5332C44.0918 52.403 43.9779 52.2728 43.8477 52.1426L42.8711 51.0195L44.4824 50.5801C45.459 50.3197 46.11 49.9941 46.4355 49.6035C46.7611 49.1803 46.8913 48.4479 46.8262 47.4062C46.0124 47.2435 45.3451 47.2272 44.8242 47.3574C44.3034 47.4551 43.7826 47.569 43.2617 47.6992C42.513 47.8945 41.7806 48.0736 41.0645 48.2363C40.3483 48.3665 39.5671 48.4316 38.7207 48.4316C38.1673 48.4316 37.5814 48.3828 36.9629 48.2852L36.4258 48.2363L36.2793 47.6992C36.2793 47.6341 36.2305 47.569 36.1328 47.5039C36.0677 47.4062 36.0026 47.3249 35.9375 47.2598C35.7747 47.0645 35.5794 46.804 35.3516 46.4785C35.1237 46.153 35.0749 45.7461 35.2051 45.2578C34.9772 44.8997 34.847 44.5254 34.8145 44.1348C34.6842 44.3952 34.5703 44.6556 34.4727 44.916C34.4076 45.1439 34.3424 45.3717 34.2773 45.5996L34.082 46.2344L33.4473 46.332C33.3822 46.3971 33.3171 46.4948 33.252 46.625C33.2194 46.7552 33.2194 46.8529 33.252 46.918L33.4473 47.4551L32.959 47.8945C32.8939 47.9922 32.8125 48.0736 32.7148 48.1387C32.6172 48.2038 32.5358 48.2689 32.4707 48.334C32.4056 48.6921 32.3079 49.0339 32.1777 49.3594C32.0801 49.6849 31.9661 50.0104 31.8359 50.3359C31.6732 50.8568 31.5104 51.3613 31.3477 51.8496C31.2174 52.3379 31.1523 52.8262 31.1523 53.3145L30.957 53.9492C30.7943 54.2096 30.5827 54.4049 30.3223 54.5352C30.0944 54.6654 29.8665 54.7793 29.6387 54.877C29.3132 55.0072 29.0853 55.1374 28.9551 55.2676L28.8086 55.9023L28.0762 56C27.653 56.0977 27.3438 56.1628 27.1484 56.1953C26.9857 56.2279 26.7904 56.2441 26.5625 56.2441L25.9277 56.1953C25.5371 55.8047 25.2116 55.5117 24.9512 55.3164C24.7233 55.0885 24.4466 54.8932 24.1211 54.7305L23.8281 54.3398C23.6979 54.0794 23.6165 53.8516 23.584 53.6562C23.5514 53.4284 23.5026 53.2005 23.4375 52.9727C23.3724 52.5495 23.2747 52.2565 23.1445 52.0938L22.4121 51.3613ZM37.9883 38.666C37.5326 39.3171 37.0931 40.0007 36.6699 40.7168C36.8978 40.6842 37.1094 40.668 37.3047 40.668C37.5326 40.668 37.7604 40.6517 37.9883 40.6191C39.1276 40.554 40.1855 40.4727 41.1621 40.375C42.1387 40.2773 43.1966 40.1146 44.3359 39.8867C44.0755 38.6823 43.7826 37.4616 43.457 36.2246C43.1641 34.9551 42.8385 33.6855 42.4805 32.416L42.2363 32.9043C41.4225 33.7832 40.6413 34.7272 39.8926 35.7363C39.1439 36.7454 38.5254 37.7057 38.0371 38.6172L37.9883 38.666ZM63.1836 56.6836C62.8581 56.6836 62.3535 56.6348 61.6699 56.5371C61.1491 55.9837 60.6771 55.235 60.2539 54.291C59.8633 53.3145 59.554 52.2891 59.3262 51.2148C59.1309 50.1081 59.0332 49.0176 59.0332 47.9434C59.0658 46.8366 59.2611 45.86 59.6191 45.0137C59.6191 44.9811 59.7656 44.5905 60.0586 43.8418C60.3841 43.0931 60.791 42.1491 61.2793 41.0098C61.7676 39.8379 62.321 38.5521 62.9395 37.1523C63.5579 35.7201 64.1764 34.3203 64.7949 32.9531C65.4134 31.5859 65.9993 30.349 66.5527 29.2422C67.1387 28.1029 67.6432 27.224 68.0664 26.6055C68.3594 26.1497 68.6198 25.7103 68.8477 25.2871C69.1081 24.8639 69.3522 24.4733 69.5801 24.1152C69.9382 23.5293 70.2637 22.9922 70.5566 22.5039C70.8822 21.9831 71.224 21.5273 71.582 21.1367C71.9727 20.7135 72.3958 20.3555 72.8516 20.0625C73.3073 19.737 73.8607 19.4603 74.5117 19.2324C74.9023 19.3952 75.2441 19.5742 75.5371 19.7695C75.8301 19.9323 76.0905 20.1439 76.3184 20.4043L76.4648 21.0879C76.5299 21.3158 76.6276 21.4785 76.7578 21.5762C76.9206 21.6413 77.0508 21.6738 77.1484 21.6738C77.5716 21.7715 77.9297 21.8854 78.2227 22.0156C78.5482 22.1133 78.89 22.1784 79.248 22.2109C79.3783 22.4062 79.4922 22.6016 79.5898 22.7969C79.7201 22.9922 79.8503 23.1712 79.9805 23.334C80.6315 24.278 81.1686 25.1895 81.5918 26.0684C82.015 26.9473 82.015 27.9076 81.5918 28.9492L81.6406 29.4863C81.8034 29.7142 81.8848 29.9258 81.8848 30.1211C81.8848 30.3164 81.8522 30.5931 81.7871 30.9512C81.7546 31.2116 81.722 31.5046 81.6895 31.8301C81.6895 32.123 81.7383 32.4486 81.8359 32.8066L82.1777 33.1973C82.6986 33.4577 83.2031 33.5879 83.6914 33.5879C84.3424 33.5879 84.9284 33.4414 85.4492 33.1484C85.9701 32.8555 86.4583 32.5625 86.9141 32.2695C87.2721 32.0091 87.5977 31.7975 87.8906 31.6348C88.2161 31.472 88.5254 31.3581 88.8184 31.293C89.502 30.6419 90.1204 30.0723 90.6738 29.584C91.2598 29.0632 91.862 28.5423 92.4805 28.0215C93.6523 27.0775 94.7917 26.0684 95.8984 24.9941C97.0052 23.8874 97.8841 22.5202 98.5352 20.8926C98.8932 20.6647 99.3001 20.5508 99.7559 20.5508C100.212 20.5508 100.667 20.6484 101.123 20.8438C101.579 21.0065 102.035 21.2018 102.49 21.4297C102.588 21.4948 102.669 21.5436 102.734 21.5762C102.832 21.6087 102.93 21.6576 103.027 21.7227C103.027 22.0807 103.174 22.4062 103.467 22.6992C103.63 22.8294 103.743 22.9108 103.809 22.9434C103.874 22.9759 103.939 23.0085 104.004 23.041C104.264 23.2038 104.476 23.3503 104.639 23.4805C104.834 23.6107 104.98 23.7897 105.078 24.0176C105.371 24.8965 105.859 25.5801 106.543 26.0684C106.478 26.4264 106.494 26.7845 106.592 27.1426C106.689 27.4681 106.803 27.7936 106.934 28.1191C106.999 28.2493 107.048 28.3796 107.08 28.5098C107.113 28.6074 107.161 28.7376 107.227 28.9004L106.152 28.8027L106.299 29.877C106.396 30.4303 106.348 31.0488 106.152 31.7324C105.99 32.416 105.794 32.9531 105.566 33.3438C105.632 34.3203 105.664 35.1016 105.664 35.6875C105.664 36.2409 105.632 36.7617 105.566 37.25C105.501 37.7383 105.387 38.2103 105.225 38.666C105.094 39.0892 104.915 39.5449 104.688 40.0332C104.818 42.5072 104.525 44.7695 103.809 46.8203C103.125 48.8711 102.376 50.7917 101.562 52.582C101.465 52.8099 101.367 53.0215 101.27 53.2168C101.172 53.4121 101.09 53.6074 101.025 53.8027C100.667 53.9004 100.342 54.0143 100.049 54.1445C99.7559 54.2747 99.4792 54.4212 99.2188 54.584C98.8607 54.8118 98.5026 55.0072 98.1445 55.1699C97.7865 55.3001 97.4121 55.3652 97.0215 55.3652C95.459 54.2259 94.6452 52.2565 94.5801 49.457C94.5475 46.6576 95.1497 43.0931 96.3867 38.7637C96.6146 38.6009 96.7122 38.3568 96.6797 38.0312V37.4941L96.1914 37.4453C96.0286 37.4453 95.8822 37.4616 95.752 37.4941C95.6217 37.5267 95.5241 37.6732 95.459 37.9336C94.4173 38.6823 93.278 39.4635 92.041 40.2773C90.8366 41.0586 89.5833 41.791 88.2812 42.4746C86.9792 43.1257 85.6445 43.679 84.2773 44.1348C82.9427 44.5579 81.6406 44.7695 80.3711 44.7695C77.1159 44.7695 74.6582 43.1094 72.998 39.7891L72.5586 38.9102L72.0703 39.6914C71.9727 39.8542 71.7936 40.1797 71.5332 40.668C71.3053 41.1237 71.0612 41.6608 70.8008 42.2793C70.5729 42.8978 70.3613 43.5326 70.166 44.1836C70.0033 44.8346 69.9544 45.4043 70.0195 45.8926C69.6289 46.2507 69.2383 46.6576 68.8477 47.1133C68.4896 47.569 68.2292 48.0898 68.0664 48.6758C68.0013 48.8385 67.985 49.0013 68.0176 49.1641C68.0501 49.2943 68.099 49.4408 68.1641 49.6035C68.1315 49.8314 68.0664 49.9941 67.9688 50.0918C67.8711 50.1895 67.7572 50.2871 67.627 50.3848C67.4642 50.5475 67.3014 50.7266 67.1387 50.9219C66.9759 51.0846 66.8294 51.2799 66.6992 51.5078C66.6341 51.7031 66.5853 51.9147 66.5527 52.1426C66.5202 52.3379 66.4876 52.5169 66.4551 52.6797C66.4551 53.0378 66.4062 53.2819 66.3086 53.4121C65.9831 54.0957 65.6901 54.6654 65.4297 55.1211C65.2018 55.5443 64.974 55.8698 64.7461 56.0977C64.5182 56.3255 64.2741 56.472 64.0137 56.5371C63.7858 56.6348 63.5091 56.6836 63.1836 56.6836ZM111.865 56.6836C111.54 56.6836 111.035 56.6348 110.352 56.5371C109.831 55.9837 109.359 55.235 108.936 54.291C108.545 53.3145 108.236 52.2891 108.008 51.2148C107.812 50.1081 107.715 49.0176 107.715 47.9434C107.747 46.8366 107.943 45.86 108.301 45.0137C108.301 44.9811 108.447 44.5905 108.74 43.8418C109.066 43.0931 109.473 42.1491 109.961 41.0098C110.449 39.8379 111.003 38.5521 111.621 37.1523C112.24 35.7201 112.858 34.3203 113.477 32.9531C114.095 31.5859 114.681 30.349 115.234 29.2422C115.82 28.1029 116.325 27.224 116.748 26.6055C117.041 26.1497 117.301 25.7103 117.529 25.2871C117.79 24.8639 118.034 24.4733 118.262 24.1152C118.62 23.5293 118.945 22.9922 119.238 22.5039C119.564 21.9831 119.906 21.5273 120.264 21.1367C120.654 20.7135 121.077 20.3555 121.533 20.0625C121.989 19.737 122.542 19.4603 123.193 19.2324C123.584 19.3952 123.926 19.5742 124.219 19.7695C124.512 19.9323 124.772 20.1439 125 20.4043L125.146 21.0879C125.212 21.3158 125.309 21.4785 125.439 21.5762C125.602 21.6413 125.732 21.6738 125.83 21.6738C126.253 21.7715 126.611 21.8854 126.904 22.0156C127.23 22.1133 127.572 22.1784 127.93 22.2109C128.06 22.4062 128.174 22.6016 128.271 22.7969C128.402 22.9922 128.532 23.1712 128.662 23.334C129.313 24.278 129.85 25.1895 130.273 26.0684C130.697 26.9473 130.697 27.9076 130.273 28.9492L130.322 29.4863C130.485 29.7142 130.566 29.9258 130.566 30.1211C130.566 30.3164 130.534 30.5931 130.469 30.9512C130.436 31.2116 130.404 31.5046 130.371 31.8301C130.371 32.123 130.42 32.4486 130.518 32.8066L130.859 33.1973C131.38 33.4577 131.885 33.5879 132.373 33.5879C133.024 33.5879 133.61 33.4414 134.131 33.1484C134.652 32.8555 135.14 32.5625 135.596 32.2695C135.954 32.0091 136.279 31.7975 136.572 31.6348C136.898 31.472 137.207 31.3581 137.5 31.293C138.184 30.6419 138.802 30.0723 139.355 29.584C139.941 29.0632 140.544 28.5423 141.162 28.0215C142.334 27.0775 143.473 26.0684 144.58 24.9941C145.687 23.8874 146.566 22.5202 147.217 20.8926C147.575 20.6647 147.982 20.5508 148.438 20.5508C148.893 20.5508 149.349 20.6484 149.805 20.8438C150.26 21.0065 150.716 21.2018 151.172 21.4297C151.27 21.4948 151.351 21.5436 151.416 21.5762C151.514 21.6087 151.611 21.6576 151.709 21.7227C151.709 22.0807 151.855 22.4062 152.148 22.6992C152.311 22.8294 152.425 22.9108 152.49 22.9434C152.555 22.9759 152.62 23.0085 152.686 23.041C152.946 23.2038 153.158 23.3503 153.32 23.4805C153.516 23.6107 153.662 23.7897 153.76 24.0176C154.053 24.8965 154.541 25.5801 155.225 26.0684C155.16 26.4264 155.176 26.7845 155.273 27.1426C155.371 27.4681 155.485 27.7936 155.615 28.1191C155.68 28.2493 155.729 28.3796 155.762 28.5098C155.794 28.6074 155.843 28.7376 155.908 28.9004L154.834 28.8027L154.98 29.877C155.078 30.4303 155.029 31.0488 154.834 31.7324C154.671 32.416 154.476 32.9531 154.248 33.3438C154.313 34.3203 154.346 35.1016 154.346 35.6875C154.346 36.2409 154.313 36.7617 154.248 37.25C154.183 37.7383 154.069 38.2103 153.906 38.666C153.776 39.0892 153.597 39.5449 153.369 40.0332C153.499 42.5072 153.206 44.7695 152.49 46.8203C151.807 48.8711 151.058 50.7917 150.244 52.582C150.146 52.8099 150.049 53.0215 149.951 53.2168C149.854 53.4121 149.772 53.6074 149.707 53.8027C149.349 53.9004 149.023 54.0143 148.73 54.1445C148.438 54.2747 148.161 54.4212 147.9 54.584C147.542 54.8118 147.184 55.0072 146.826 55.1699C146.468 55.3001 146.094 55.3652 145.703 55.3652C144.141 54.2259 143.327 52.2565 143.262 49.457C143.229 46.6576 143.831 43.0931 145.068 38.7637C145.296 38.6009 145.394 38.3568 145.361 38.0312V37.4941L144.873 37.4453C144.71 37.4453 144.564 37.4616 144.434 37.4941C144.303 37.5267 144.206 37.6732 144.141 37.9336C143.099 38.6823 141.96 39.4635 140.723 40.2773C139.518 41.0586 138.265 41.791 136.963 42.4746C135.661 43.1257 134.326 43.679 132.959 44.1348C131.624 44.5579 130.322 44.7695 129.053 44.7695C125.798 44.7695 123.34 43.1094 121.68 39.7891L121.24 38.9102L120.752 39.6914C120.654 39.8542 120.475 40.1797 120.215 40.668C119.987 41.1237 119.743 41.6608 119.482 42.2793C119.255 42.8978 119.043 43.5326 118.848 44.1836C118.685 44.8346 118.636 45.4043 118.701 45.8926C118.311 46.2507 117.92 46.6576 117.529 47.1133C117.171 47.569 116.911 48.0898 116.748 48.6758C116.683 48.8385 116.667 49.0013 116.699 49.1641C116.732 49.2943 116.781 49.4408 116.846 49.6035C116.813 49.8314 116.748 49.9941 116.65 50.0918C116.553 50.1895 116.439 50.2871 116.309 50.3848C116.146 50.5475 115.983 50.7266 115.82 50.9219C115.658 51.0846 115.511 51.2799 115.381 51.5078C115.316 51.7031 115.267 51.9147 115.234 52.1426C115.202 52.3379 115.169 52.5169 115.137 52.6797C115.137 53.0378 115.088 53.2819 114.99 53.4121C114.665 54.0957 114.372 54.6654 114.111 55.1211C113.883 55.5443 113.656 55.8698 113.428 56.0977C113.2 56.3255 112.956 56.472 112.695 56.5371C112.467 56.6348 112.191 56.6836 111.865 56.6836ZM163.428 57.6113C160.563 57.2207 158.822 55.707 158.203 53.0703L158.252 52.5332C158.382 52.1426 158.529 51.7031 158.691 51.2148C158.854 50.6615 159.033 50.1243 159.229 49.6035C159.424 49.0501 159.749 48.5618 160.205 48.1387C160.303 47.8457 160.482 47.4062 160.742 46.8203C161.035 46.2018 161.507 45.2904 162.158 44.0859C162.679 43.1419 163.086 42.3932 163.379 41.8398C163.704 41.2865 163.965 40.8633 164.16 40.5703C163.835 39.9844 163.379 39.4147 162.793 38.8613C162.272 37.8848 161.816 36.957 161.426 36.0781C161.068 35.1667 160.791 34.3529 160.596 33.6367C160.563 32.8555 160.433 32.0579 160.205 31.2441C160.107 30.821 160.01 30.3978 159.912 29.9746C159.814 29.5514 159.766 29.112 159.766 28.6562C159.635 28.4284 159.521 28.1354 159.424 27.7773L159.521 27.1914C159.684 26.931 159.717 26.5892 159.619 26.166C159.554 25.7103 159.456 25.2546 159.326 24.7988C159.229 24.3757 159.131 23.9362 159.033 23.4805C158.968 22.9922 158.952 22.5202 158.984 22.0645C159.017 21.6087 159.131 21.1693 159.326 20.7461C159.554 20.3229 159.928 19.9648 160.449 19.6719L160.938 19.3301L161.426 19.623C161.784 19.8509 162.126 20.0462 162.451 20.209C162.777 20.3717 163.102 20.5345 163.428 20.6973C163.818 20.8926 164.209 21.1042 164.6 21.332C164.99 21.5273 165.413 21.7552 165.869 22.0156L166.357 22.3574L166.309 22.8945C166.309 22.9596 166.325 23.041 166.357 23.1387C166.39 23.2363 166.439 23.3177 166.504 23.3828L167.041 23.5293L167.09 24.2129V24.7988C167.09 25.0918 167.106 25.3034 167.139 25.4336C167.171 25.5312 167.236 25.6452 167.334 25.7754L167.578 26.4102C167.578 26.9961 167.627 27.5169 167.725 27.9727C167.822 28.4284 167.936 28.8841 168.066 29.3398C168.229 29.7956 168.359 30.2676 168.457 30.7559C168.555 31.2116 168.571 31.7161 168.506 32.2695C168.701 32.1719 168.896 32.0254 169.092 31.8301C169.157 31.765 169.222 31.6999 169.287 31.6348C169.385 31.5697 169.482 31.5046 169.58 31.4395L172.998 26.8008L172.9 26.2148L174.121 25.043C174.447 24.7826 174.756 24.5221 175.049 24.2617C175.342 23.9688 175.586 23.6432 175.781 23.2852L176.074 22.8457C177.539 20.8926 179.427 19.6882 181.738 19.2324L182.568 19.0371L182.812 19.8184C182.975 20.2741 183.285 20.681 183.74 21.0391C184.229 21.3646 184.749 21.6901 185.303 22.0156L185.84 22.3574C186.035 22.748 186.133 23.041 186.133 23.2363C186.133 23.4316 186.117 23.5944 186.084 23.7246L186.328 24.3594C185.97 25.3034 185.579 25.987 185.156 26.4102C184.733 26.8008 184.294 27.1751 183.838 27.5332C183.48 27.8262 183.154 28.1191 182.861 28.4121C182.568 28.7051 182.34 29.0306 182.178 29.3887L181.787 29.877C180.973 30.3001 180.452 30.9186 180.225 31.7324L180.029 32.416H179.297C179.264 32.416 179.183 32.4974 179.053 32.6602C178.923 32.7904 178.727 33.1322 178.467 33.6855C178.174 34.0762 177.962 34.3366 177.832 34.4668C177.734 34.5645 177.653 34.6458 177.588 34.7109C177.523 34.8737 177.458 35.0202 177.393 35.1504C177.36 35.2806 177.311 35.4434 177.246 35.6387L176.953 36.0293C176.66 36.2897 176.449 36.5501 176.318 36.8105C176.188 37.0384 176.042 37.3151 175.879 37.6406C175.749 37.9336 175.602 38.2428 175.439 38.5684C175.277 38.8613 175.049 39.1543 174.756 39.4473L174.854 39.9844L174.463 40.3262C174.202 40.554 173.975 40.847 173.779 41.2051C173.584 41.5306 173.389 41.8724 173.193 42.2305C172.998 42.6211 172.786 43.0117 172.559 43.4023C172.331 43.793 172.038 44.151 171.68 44.4766C171.452 45.0625 171.24 45.5182 171.045 45.8438C170.882 46.1693 170.589 46.5599 170.166 47.0156C169.775 48.5781 168.848 50.2546 167.383 52.0449C167.35 52.403 167.236 52.7611 167.041 53.1191C166.878 53.4447 166.699 53.7539 166.504 54.0469C166.439 54.1771 166.357 54.3236 166.26 54.4863C166.195 54.6165 166.146 54.7142 166.113 54.7793L165.967 55.3164C165.771 55.6745 165.56 55.9674 165.332 56.1953C165.137 56.4232 164.941 56.6348 164.746 56.8301C164.648 56.8952 164.551 56.9766 164.453 57.0742C164.388 57.1719 164.323 57.2533 164.258 57.3184L163.428 57.6113Z" fill="#F2F0E5"/>
</svg>
