<svg width="84" height="20" viewBox="0 0 84 20" fill="none" xmlns="http://www.w3.org/2000/svg">
<path d="M5.37 19.21C4.19 19.21 3.27 19.07 2.61 18.79C1.95 18.49 1.49 18.02 1.23 17.38C0.97 16.74 0.84 15.93 0.84 14.95V13.72H3.69V15.58C3.69 16.34 3.8 16.88 4.02 17.2C4.26 17.5 4.7 17.65 5.34 17.65C5.9 17.65 6.3 17.5 6.54 17.2C6.8 16.9 6.93 16.43 6.93 15.79V14.77C6.93 14.31 6.84 13.93 6.66 13.63C6.5 13.31 6.23 13.04 5.85 12.82C5.47 12.6 4.97 12.36 4.35 12.1C3.77 11.86 3.23 11.6 2.73 11.32C2.25 11.04 1.86 10.67 1.56 10.21C1.28 9.75 1.14 9.16 1.14 8.44V7.54C1.14 6.36 1.47 5.46 2.13 4.84C2.79 4.22 3.95 3.91 5.61 3.91C6.69 3.91 7.54 4.05 8.16 4.33C8.8 4.61 9.25 5.06 9.51 5.68C9.79 6.28 9.93 7.06 9.93 8.02V9.16H7.2V7.6C7.2 6.8 7.07 6.25 6.81 5.95C6.57 5.63 6.17 5.47 5.61 5.47C4.99 5.47 4.57 5.63 4.35 5.95C4.13 6.27 4.02 6.66 4.02 7.12V8.11C4.02 8.65 4.15 9.08 4.41 9.4C4.69 9.7 5.05 9.95 5.49 10.15C5.93 10.33 6.43 10.54 6.99 10.78C7.53 10.98 8.02 11.22 8.46 11.5C8.92 11.76 9.28 12.12 9.54 12.58C9.8 13.02 9.93 13.62 9.93 14.38V15.19C9.93 16.07 9.79 16.81 9.51 17.41C9.23 17.99 8.76 18.44 8.1 18.76C7.44 19.06 6.53 19.21 5.37 19.21ZM12.1005 19V4.15H14.4705L14.7405 5.83C14.9205 5.23 15.2805 4.75 15.8205 4.39C16.3805 4.03 16.9805 3.85 17.6205 3.85C18.6005 3.85 19.3305 4.03 19.8105 4.39C20.3105 4.73 20.6405 5.2 20.8005 5.8C20.9605 6.38 21.0405 7.05 21.0405 7.81V19H18.2205V8.02C18.2205 7.74 18.2105 7.48 18.1905 7.24C18.1705 6.98 18.1105 6.75 18.0105 6.55C17.9105 6.35 17.7505 6.19 17.5305 6.07C17.3105 5.95 16.9905 5.89 16.5705 5.89C16.2305 5.89 15.9405 5.95 15.7005 6.07C15.4805 6.19 15.3105 6.34 15.1905 6.52C15.0705 6.68 14.9805 6.84 14.9205 7V19H12.1005ZM27.6691 19.24C26.6491 19.24 25.7991 19.13 25.1191 18.91C24.4591 18.67 23.9591 18.22 23.6191 17.56C23.2991 16.9 23.1391 15.91 23.1391 14.59V7.63C23.1391 6.19 23.4991 5.21 24.2191 4.69C24.9391 4.15 26.0591 3.88 27.5791 3.88C29.0991 3.88 30.2191 4.15 30.9391 4.69C31.6591 5.21 32.0191 6.19 32.0191 7.63V11.59H25.9591V15.7C25.9591 16.44 26.0691 16.96 26.2891 17.26C26.5291 17.56 26.9791 17.71 27.6391 17.71C28.2391 17.71 28.6491 17.57 28.8691 17.29C29.0891 16.99 29.1991 16.46 29.1991 15.7V13.51H32.0191V14.56C32.0191 15.86 31.8491 16.85 31.5091 17.53C31.1891 18.21 30.7091 18.67 30.0691 18.91C29.4291 19.13 28.6291 19.24 27.6691 19.24ZM25.9591 10.27H29.1991V7.51C29.1991 6.83 29.0891 6.34 28.8691 6.04C28.6491 5.74 28.2191 5.59 27.5791 5.59C26.9591 5.59 26.5291 5.74 26.2891 6.04C26.0691 6.34 25.9591 6.83 25.9591 7.51V10.27ZM36.8311 19.24C36.3311 19.24 35.8511 19.17 35.3911 19.03C34.9511 18.89 34.5711 18.6 34.2511 18.16C33.9511 17.7 33.8011 17 33.8011 16.06V14.29C33.8011 13.31 34.0811 12.53 34.6411 11.95C35.2211 11.35 36.0811 10.82 37.2211 10.36C37.8811 10.08 38.4011 9.83 38.7811 9.61C39.1811 9.39 39.4711 9.13 39.6511 8.83C39.8311 8.53 39.9211 8.12 39.9211 7.6V6.85C39.9211 6.47 39.8411 6.18 39.6811 5.98C39.5411 5.78 39.3511 5.64 39.1111 5.56C38.8911 5.46 38.6311 5.41 38.3311 5.41C37.6711 5.41 37.2311 5.61 37.0111 6.01C36.8111 6.41 36.7111 7.05 36.7111 7.93V9.19H34.1611V7.66C34.1611 6.92 34.2611 6.27 34.4611 5.71C34.6611 5.13 35.0611 4.68 35.6611 4.36C36.2611 4.02 37.1511 3.85 38.3311 3.85C39.5511 3.85 40.4711 3.97 41.0911 4.21C41.7311 4.45 42.1711 4.82 42.4111 5.32C42.6511 5.8 42.7711 6.42 42.7711 7.18V19H39.9511V17.29C39.7511 17.91 39.3511 18.39 38.7511 18.73C38.1711 19.07 37.5311 19.24 36.8311 19.24ZM38.0011 17.35C38.6811 17.35 39.1611 17.11 39.4411 16.63C39.7411 16.13 39.8911 15.44 39.8911 14.56V10.39C39.7511 10.63 39.5011 10.85 39.1411 11.05C38.7811 11.25 38.4311 11.46 38.0911 11.68C37.5911 11.98 37.2111 12.3 36.9511 12.64C36.6911 12.96 36.5611 13.41 36.5611 13.99V15.4C36.5611 15.94 36.6211 16.36 36.7411 16.66C36.8811 16.94 37.0611 17.13 37.2811 17.23C37.5211 17.31 37.7611 17.35 38.0011 17.35ZM51.3574 19L48.2974 10.39L51.6274 4.15H54.4174L50.9974 10.42L54.4174 19H51.3574ZM45.1474 19V0.00999951H47.9674V19H45.1474ZM59.7785 19.24C58.7585 19.24 57.9085 19.13 57.2285 18.91C56.5685 18.67 56.0685 18.22 55.7285 17.56C55.4085 16.9 55.2485 15.91 55.2485 14.59V7.63C55.2485 6.19 55.6085 5.21 56.3285 4.69C57.0485 4.15 58.1685 3.88 59.6885 3.88C61.2085 3.88 62.3285 4.15 63.0485 4.69C63.7685 5.21 64.1285 6.19 64.1285 7.63V11.59H58.0685V15.7C58.0685 16.44 58.1785 16.96 58.3985 17.26C58.6385 17.56 59.0885 17.71 59.7485 17.71C60.3485 17.71 60.7585 17.57 60.9785 17.29C61.1985 16.99 61.3085 16.46 61.3085 15.7V13.51H64.1285V14.56C64.1285 15.86 63.9585 16.85 63.6185 17.53C63.2985 18.21 62.8185 18.67 62.1785 18.91C61.5385 19.13 60.7385 19.24 59.7785 19.24ZM58.0685 10.27H61.3085V7.51C61.3085 6.83 61.1985 6.34 60.9785 6.04C60.7585 5.74 60.3285 5.59 59.6885 5.59C59.0685 5.59 58.6385 5.74 58.3985 6.04C58.1785 6.34 58.0685 6.83 58.0685 7.51V10.27ZM66.2705 19V4.15H68.6705L68.9105 5.86C69.1105 5.36 69.4205 4.99 69.8405 4.75C70.2605 4.49 70.6905 4.31 71.1305 4.21C71.7505 3.99 72.3805 3.95 73.0205 4.09V6.28C72.9605 6.26 72.8105 6.24 72.5705 6.22C72.3305 6.18 72.0605 6.17 71.7605 6.19C71.4605 6.21 71.2005 6.28 70.9805 6.4C70.4005 6.54 69.9405 6.83 69.6005 7.27C69.2605 7.69 69.0905 8.22 69.0905 8.86V19H66.2705ZM78.495 19.21C77.315 19.21 76.395 19.07 75.735 18.79C75.075 18.49 74.615 18.02 74.355 17.38C74.095 16.74 73.965 15.93 73.965 14.95V13.72H76.815V15.58C76.815 16.34 76.925 16.88 77.145 17.2C77.385 17.5 77.825 17.65 78.465 17.65C79.025 17.65 79.425 17.5 79.665 17.2C79.925 16.9 80.055 16.43 80.055 15.79V14.77C80.055 14.31 79.965 13.93 79.785 13.63C79.625 13.31 79.355 13.04 78.975 12.82C78.595 12.6 78.095 12.36 77.475 12.1C76.895 11.86 76.355 11.6 75.855 11.32C75.375 11.04 74.985 10.67 74.685 10.21C74.405 9.75 74.265 9.16 74.265 8.44V7.54C74.265 6.36 74.595 5.46 75.255 4.84C75.915 4.22 77.075 3.91 78.735 3.91C79.815 3.91 80.665 4.05 81.285 4.33C81.925 4.61 82.375 5.06 82.635 5.68C82.915 6.28 83.055 7.06 83.055 8.02V9.16H80.325V7.6C80.325 6.8 80.195 6.25 79.935 5.95C79.695 5.63 79.295 5.47 78.735 5.47C78.115 5.47 77.695 5.63 77.475 5.95C77.255 6.27 77.145 6.66 77.145 7.12V8.11C77.145 8.65 77.275 9.08 77.535 9.4C77.815 9.7 78.175 9.95 78.615 10.15C79.055 10.33 79.555 10.54 80.115 10.78C80.655 10.98 81.145 11.22 81.585 11.5C82.045 11.76 82.405 12.12 82.665 12.58C82.925 13.02 83.055 13.62 83.055 14.38V15.19C83.055 16.07 82.915 16.81 82.635 17.41C82.355 17.99 81.885 18.44 81.225 18.76C80.565 19.06 79.655 19.21 78.495 19.21Z" fill="#F2F0E5"/>
</svg>
