<svg width="337" height="160" viewBox="0 0 337 160" fill="none" xmlns="http://www.w3.org/2000/svg">
<path d="M27.964 6.252V8.052L24.904 8.52V30.84L28.252 31.236V33H18.1V31.236L21.088 30.84V8.376H9.568V30.876L12.916 31.236V33H2.836V31.236L5.752 30.876V8.484L2.692 8.052V6.252H27.964ZM34.3683 8.484L31.5603 8.052V6.252H36.3483C37.2123 6.252 38.0643 6.216 38.9043 6.144C40.2003 6.048 41.4243 6 42.5763 6C46.0563 6.024 48.5163 6.672 49.9563 7.944C51.3963 9.216 52.1163 11.136 52.1163 13.704C52.1163 15.624 51.6723 17.292 50.7843 18.708C49.8963 20.124 48.6603 21.204 47.0763 21.948C45.5163 22.692 43.7163 23.064 41.6763 23.064C40.9803 23.064 40.2723 23.052 39.5523 23.028C38.8323 22.98 38.3883 22.944 38.2203 22.92V30.84L43.1523 31.236V33H31.3803V31.236L34.3683 30.876V8.484ZM38.2203 20.94C38.8923 21.06 40.0443 21.12 41.6763 21.12C43.5723 21.12 45.1083 20.544 46.2843 19.392C47.4843 18.24 48.0843 16.356 48.0843 13.74C48.0843 11.676 47.5683 10.2 46.5363 9.312C45.5043 8.4 43.8963 7.944 41.7123 7.944C40.9443 7.944 40.1283 7.992 39.2643 8.088C38.7363 8.136 38.3883 8.16 38.2203 8.16V20.94ZM57.6753 8.484L54.7233 8.052V6.252H73.0473L73.5513 11.832H71.4993L70.4553 8.34L61.5273 8.124V18.276L67.5393 18.168L68.0433 15.18H70.0233V23.46H68.0433L67.5393 20.364L61.5273 20.256V30.984L71.6793 30.624L73.5873 26.088L75.7113 26.736L74.6673 33H54.6873V31.236L57.6753 30.876V8.484ZM81.1245 8.484L78.1725 8.052V6.252H83.0325C83.8485 6.252 84.8805 6.204 86.1285 6.108C87.2805 6.012 88.1325 5.964 88.6845 5.964C91.9965 5.964 94.3605 6.48 95.7765 7.512C97.2165 8.544 97.9365 10.056 97.9365 12.048C97.9365 13.752 97.4445 15.216 96.4605 16.44C95.4765 17.664 94.1325 18.432 92.4285 18.744C94.7325 18.696 96.5445 19.236 97.8645 20.364C99.1845 21.492 99.8445 23.028 99.8445 24.972C99.8445 27.396 98.9805 29.376 97.2525 30.912C95.5485 32.448 92.7165 33.216 88.7565 33.216C87.8925 33.216 87.0645 33.18 86.2725 33.108C84.4005 33.036 83.2845 33 82.9245 33H78.1365V31.236L81.1245 30.876V8.484ZM84.9405 18.06C85.2765 18.084 85.9605 18.096 86.9925 18.096H88.9725C90.6525 18.096 91.9245 17.628 92.7885 16.692C93.6525 15.756 94.0845 14.424 94.0845 12.696C94.0845 11.016 93.6525 9.792 92.7885 9.024C91.9245 8.232 90.4485 7.836 88.3605 7.836C87.4965 7.836 86.6085 7.884 85.6965 7.98L84.9405 8.052V18.06ZM84.9405 30.984C85.4925 31.176 86.7405 31.272 88.6845 31.272C91.1085 31.272 92.8605 30.78 93.9405 29.796C95.0445 28.788 95.5965 27.348 95.5965 25.476C95.5965 23.628 95.1165 22.284 94.1565 21.444C93.2205 20.604 91.6965 20.184 89.5845 20.184C87.1365 20.184 85.5885 20.208 84.9405 20.256V30.984ZM105.841 8.484L103.033 8.052V6.252H107.821C108.685 6.252 109.537 6.216 110.377 6.144C111.673 6.048 112.897 6 114.049 6C117.529 6.024 119.989 6.672 121.429 7.944C122.869 9.216 123.589 11.136 123.589 13.704C123.589 15.624 123.145 17.292 122.257 18.708C121.369 20.124 120.133 21.204 118.549 21.948C116.989 22.692 115.189 23.064 113.149 23.064C112.453 23.064 111.745 23.052 111.025 23.028C110.305 22.98 109.861 22.944 109.693 22.92V30.84L114.625 31.236V33H102.853V31.236L105.841 30.876V8.484ZM109.693 20.94C110.365 21.06 111.517 21.12 113.149 21.12C115.045 21.12 116.581 20.544 117.757 19.392C118.957 18.24 119.557 16.356 119.557 13.74C119.557 11.676 119.041 10.2 118.009 9.312C116.977 8.4 115.369 7.944 113.185 7.944C112.417 7.944 111.601 7.992 110.737 8.088C110.209 8.136 109.861 8.16 109.693 8.16V20.94ZM134.944 6.036H138.904L147.652 30.876L149.884 31.236V33H140.38V31.236L143.368 30.876L141.676 25.548H131.164L129.472 30.876L132.568 31.236V33H124.036V31.236L126.268 30.876L134.944 6.036ZM137.212 11.796L136.312 8.628L135.448 11.868L131.812 23.424H140.992L137.212 11.796ZM159.87 8.16L153.678 8.376L152.418 15.9H150.042L150.654 6.252H173.082L173.514 15.9H171.246L170.058 8.376L163.83 8.16V30.876L168.942 31.236V33H155.19V31.236L159.87 30.876V8.16ZM186.415 6.252V8.052L182.887 8.484V26.556L185.839 22.128L196.207 9.456V8.484L193.003 8.052V6.252H202.903V8.052L200.023 8.484V30.876L203.083 31.236V33H193.039V31.236L196.207 30.876V12.552L193.543 16.728L182.887 29.58V30.876L186.271 31.236V33H176.119V31.236L179.107 30.876V8.484L176.227 8.052V6.252H186.415ZM215.17 8.16L208.978 8.376L207.718 15.9H205.342L205.954 6.252H228.382L228.814 15.9H226.546L225.358 8.376L219.13 8.16V30.876L224.242 31.236V33H210.49V31.236L215.17 30.876V8.16ZM234.3 8.484L231.348 8.052V6.252H249.672L250.176 11.832H248.124L247.08 8.34L238.152 8.124V18.276L244.164 18.168L244.668 15.18H246.648V23.46H244.668L244.164 20.364L238.152 20.256V30.984L248.304 30.624L250.212 26.088L252.336 26.736L251.292 33H231.312V31.236L234.3 30.876V8.484ZM14.788 67.456C14.692 67.648 14.404 68.332 13.924 69.508C13.444 70.66 12.76 71.596 11.872 72.316C10.984 73.036 9.952 73.396 8.776 73.396C8.152 73.396 7.528 73.336 6.904 73.216C6.304 73.12 5.812 72.988 5.428 72.82V70.264L7.984 70.3C9.088 70.3 9.904 70.084 10.432 69.652C10.96 69.196 11.416 68.392 11.8 67.24L2.728 48.484L0.784 48.052V46.252H10.504V48.052L6.976 48.484L12.772 61.012L13.852 64.288L15.04 60.976L19.612 48.484L16.552 48.052V46.252H24.256V48.052L22.384 48.484L14.788 67.456ZM29.5559 48.484L26.6039 48.052V46.252H44.9279L45.4319 51.832H43.3799L42.3359 48.34L33.4079 48.124V58.276L39.4199 58.168L39.9239 55.18H41.9039V63.46H39.9239L39.4199 60.364L33.4079 60.256V70.984L43.5599 70.624L45.4679 66.088L47.5919 66.736L46.5479 73H26.5679V71.236L29.5559 70.876V48.484ZM51.0252 47.116C51.4092 47.092 52.1772 46.948 53.3292 46.684C54.4092 46.444 55.3332 46.264 56.1012 46.144C56.8692 46.024 57.6132 45.964 58.3332 45.964C61.3332 45.964 63.6372 46.468 65.2452 47.476C66.8532 48.484 67.6572 50.008 67.6572 52.048C67.6572 53.968 67.0452 55.504 65.8212 56.656C64.6212 57.808 63.1692 58.552 61.4652 58.888C63.6972 58.936 65.4132 59.548 66.6132 60.724C67.8372 61.876 68.4492 63.352 68.4492 65.152C68.4492 67.744 67.6452 69.736 66.0372 71.128C64.4532 72.52 61.9212 73.216 58.4412 73.216C57.0012 73.216 55.7292 73.096 54.6252 72.856C53.5212 72.616 52.6452 72.4 51.9972 72.208C51.3732 71.992 50.9892 71.86 50.8452 71.812L51.4932 65.584H53.2932L54.3012 70.264C55.4532 70.888 57.0612 71.2 59.1252 71.2C60.7332 71.2 61.9452 70.72 62.7612 69.76C63.6012 68.8 64.0212 67.36 64.0212 65.44C64.0212 63.952 63.5772 62.704 62.6892 61.696C61.8012 60.688 60.2772 60.184 58.1172 60.184H55.5972V58.168H57.6852C58.6932 58.168 59.6412 57.964 60.5292 57.556C61.4412 57.148 62.1732 56.524 62.7252 55.684C63.2772 54.82 63.5532 53.776 63.5532 52.552C63.5532 50.944 63.0972 49.768 62.1852 49.024C61.2972 48.28 60.0612 47.908 58.4772 47.908C57.4212 47.908 56.5212 48.04 55.7772 48.304C55.0572 48.568 54.5772 48.904 54.3372 49.312L53.6532 52.66H51.3852L51.0252 47.116ZM95.0315 70.84C95.0315 71.152 94.8995 72.688 94.6355 75.448C94.3715 78.208 94.2275 79.624 94.2035 79.696H91.8995C91.8515 78.808 91.7435 77.512 91.5755 75.808C91.4315 74.104 91.3235 73.168 91.2515 73H74.7995C74.7035 73.096 74.4635 74.008 74.0795 75.736C73.7195 77.464 73.4435 78.796 73.2515 79.732H70.9115C70.9355 78.772 70.9835 77.332 71.0555 75.412C71.1515 73.516 71.2355 71.992 71.3075 70.84H73.9355C74.5115 70.12 75.1355 68.944 75.8075 67.312C76.5035 65.656 77.1275 63.424 77.6795 60.616C78.2315 57.784 78.5075 54.472 78.5075 50.68V48.484L74.7995 48.052V46.252H95.1755V48.052L91.7915 48.484V70.84H95.0315ZM80.7395 50.896C80.7635 54.304 80.5595 57.4 80.1275 60.184C79.6955 62.944 79.1795 65.224 78.5795 67.024C78.0035 68.824 77.4755 70.096 76.9955 70.84H87.9755L88.0115 48.34H80.7395V50.896ZM101.417 48.484L98.573 48.052V46.252H108.365V48.052L105.269 48.484V58.168H117.941V48.484L115.025 48.052V46.252H124.673V48.052L121.829 48.484V70.876L124.673 71.236V73H114.989V71.236L117.941 70.876V60.4H105.269V70.876L108.401 71.236V73H98.501V71.236L101.417 70.876V48.484ZM139.798 56.764C142.726 56.764 144.97 57.46 146.53 58.852C148.09 60.22 148.87 62.14 148.87 64.612C148.87 67.372 147.994 69.508 146.242 71.02C144.49 72.532 142.174 73.288 139.294 73.288C138.91 73.288 138.502 73.276 138.07 73.252C137.662 73.228 137.242 73.204 136.81 73.18C135.418 73.06 134.182 73 133.102 73H128.206V71.236L131.23 70.876V48.448L128.314 47.98V46.252H138.574V47.98L135.046 48.448V56.8L139.798 56.764ZM162.406 46.252V48.052L159.058 48.484V70.876L162.406 71.272V73H151.822V71.236L155.17 70.876V48.484L151.822 48.052V46.252H162.406ZM135.046 71.02C135.67 71.14 136.21 71.224 136.666 71.272C137.146 71.32 137.794 71.344 138.61 71.344C140.626 71.344 142.162 70.78 143.218 69.652C144.298 68.524 144.838 66.916 144.838 64.828C144.838 62.836 144.31 61.348 143.254 60.364C142.198 59.356 140.686 58.852 138.718 58.852L135.046 58.888V71.02ZM176.402 46.252V48.052L172.874 48.484V66.556L175.826 62.128L186.194 49.456V48.484L182.99 48.052V46.252H192.89V48.052L190.01 48.484V70.876L193.07 71.236V73H183.026V71.236L186.194 70.876V52.552L183.53 56.728L172.874 69.58V70.876L176.258 71.236V73H166.106V71.236L169.094 70.876V48.484L166.214 48.052V46.252H176.402ZM175.646 37.612C176.03 37.612 176.222 38.08 176.222 39.016C176.222 40.024 176.486 40.804 177.014 41.356C177.566 41.908 178.514 42.184 179.858 42.184C181.202 42.184 182.138 41.908 182.666 41.356C183.218 40.804 183.494 40.024 183.494 39.016C183.494 38.08 183.674 37.612 184.034 37.612H186.734L186.77 38.404C186.77 40.204 186.17 41.572 184.97 42.508C183.794 43.42 182.09 43.876 179.858 43.876C177.65 43.876 175.946 43.408 174.746 42.472C173.546 41.536 172.946 40.18 172.946 38.404L172.982 37.612H175.646ZM223.24 46.252L223.492 55.72H221.08L220.036 48.412L212.116 48.124V70.84L218.38 71.236V73H204.268V71.236L208.228 70.84V48.52L204.376 48.016V46.252H223.24ZM236.566 73.396C234.118 73.396 232.042 72.832 230.338 71.704C228.658 70.576 227.386 68.992 226.522 66.952C225.658 64.888 225.226 62.5 225.226 59.788C225.226 57.028 225.742 54.604 226.774 52.516C227.83 50.428 229.27 48.82 231.094 47.692C232.918 46.54 234.97 45.964 237.25 45.964C240.994 45.964 243.85 47.152 245.818 49.528C247.81 51.88 248.806 55.144 248.806 59.32C248.806 62.128 248.266 64.6 247.186 66.736C246.13 68.848 244.666 70.492 242.794 71.668C240.946 72.82 238.87 73.396 236.566 73.396ZM237.034 47.836C234.706 47.836 232.87 48.856 231.526 50.896C230.182 52.912 229.51 55.876 229.51 59.788C229.51 63.388 230.158 66.244 231.454 68.356C232.774 70.444 234.61 71.488 236.962 71.488C239.266 71.488 241.09 70.444 242.434 68.356C243.802 66.268 244.486 63.268 244.486 59.356C244.486 55.732 243.838 52.912 242.542 50.896C241.246 48.856 239.41 47.836 237.034 47.836ZM254.698 48.484L251.89 48.052V46.252H256.678C257.542 46.252 258.394 46.216 259.234 46.144C260.53 46.048 261.754 46 262.906 46C266.386 46.024 268.846 46.672 270.286 47.944C271.726 49.216 272.446 51.136 272.446 53.704C272.446 55.624 272.002 57.292 271.114 58.708C270.226 60.124 268.99 61.204 267.406 61.948C265.846 62.692 264.046 63.064 262.006 63.064C261.31 63.064 260.602 63.052 259.882 63.028C259.162 62.98 258.718 62.944 258.55 62.92V70.84L263.482 71.236V73H251.71V71.236L254.698 70.876V48.484ZM258.55 60.94C259.222 61.06 260.374 61.12 262.006 61.12C263.902 61.12 265.438 60.544 266.614 59.392C267.814 58.24 268.414 56.356 268.414 53.74C268.414 51.676 267.898 50.2 266.866 49.312C265.834 48.4 264.226 47.944 262.042 47.944C261.274 47.944 260.458 47.992 259.594 48.088C259.066 48.136 258.718 48.16 258.55 48.16V60.94ZM285.925 73.396C283.477 73.396 281.401 72.832 279.697 71.704C278.017 70.576 276.745 68.992 275.881 66.952C275.017 64.888 274.585 62.5 274.585 59.788C274.585 57.028 275.101 54.604 276.133 52.516C277.189 50.428 278.629 48.82 280.453 47.692C282.277 46.54 284.329 45.964 286.609 45.964C290.353 45.964 293.209 47.152 295.177 49.528C297.169 51.88 298.165 55.144 298.165 59.32C298.165 62.128 297.625 64.6 296.545 66.736C295.489 68.848 294.025 70.492 292.153 71.668C290.305 72.82 288.229 73.396 285.925 73.396ZM286.393 47.836C284.065 47.836 282.229 48.856 280.885 50.896C279.541 52.912 278.869 55.876 278.869 59.788C278.869 63.388 279.517 66.244 280.813 68.356C282.133 70.444 283.969 71.488 286.321 71.488C288.625 71.488 290.449 70.444 291.793 68.356C293.161 66.268 293.845 63.268 293.845 59.356C293.845 55.732 293.197 52.912 291.901 50.896C290.605 48.856 288.769 47.836 286.393 47.836ZM324.11 70.84C324.11 71.152 323.978 72.688 323.714 75.448C323.45 78.208 323.306 79.624 323.282 79.696H320.978C320.93 78.808 320.822 77.512 320.654 75.808C320.51 74.104 320.402 73.168 320.33 73H303.878C303.782 73.096 303.542 74.008 303.158 75.736C302.798 77.464 302.522 78.796 302.33 79.732H299.99C300.014 78.772 300.062 77.332 300.134 75.412C300.23 73.516 300.314 71.992 300.386 70.84H303.014C303.59 70.12 304.214 68.944 304.886 67.312C305.582 65.656 306.206 63.424 306.758 60.616C307.31 57.784 307.586 54.472 307.586 50.68V48.484L303.878 48.052V46.252H324.254V48.052L320.87 48.484V70.84H324.11ZM309.818 50.896C309.842 54.304 309.638 57.4 309.206 60.184C308.774 62.944 308.258 65.224 307.658 67.024C307.082 68.824 306.554 70.096 306.074 70.84H317.054L317.09 48.34H309.818V50.896Z" fill="#313131"/>
<path d="M68.9594 88.484L66.0074 88.052V86.252H70.8674C71.6834 86.252 72.7154 86.204 73.9634 86.108C75.1154 86.012 75.9674 85.964 76.5194 85.964C79.8314 85.964 82.1954 86.48 83.6114 87.512C85.0514 88.544 85.7714 90.056 85.7714 92.048C85.7714 93.752 85.2794 95.216 84.2954 96.44C83.3114 97.664 81.9674 98.432 80.2634 98.744C82.5674 98.696 84.3794 99.236 85.6994 100.364C87.0194 101.492 87.6794 103.028 87.6794 104.972C87.6794 107.396 86.8154 109.376 85.0874 110.912C83.3834 112.448 80.5514 113.216 76.5914 113.216C75.7274 113.216 74.8994 113.18 74.1074 113.108C72.2354 113.036 71.1194 113 70.7594 113H65.9714V111.236L68.9594 110.876V88.484ZM72.7754 98.06C73.1114 98.084 73.7954 98.096 74.8274 98.096H76.8074C78.4874 98.096 79.7594 97.628 80.6234 96.692C81.4874 95.756 81.9194 94.424 81.9194 92.696C81.9194 91.016 81.4874 89.792 80.6234 89.024C79.7594 88.232 78.2834 87.836 76.1954 87.836C75.3314 87.836 74.4434 87.884 73.5314 87.98L72.7754 88.052V98.06ZM72.7754 110.984C73.3274 111.176 74.5754 111.272 76.5194 111.272C78.9434 111.272 80.6954 110.78 81.7754 109.796C82.8794 108.788 83.4314 107.348 83.4314 105.476C83.4314 103.628 82.9514 102.284 81.9914 101.444C81.0554 100.604 79.5314 100.184 77.4194 100.184C74.9714 100.184 73.4234 100.208 72.7754 100.256V110.984ZM111.111 113.396C108.471 113.396 106.215 112.832 104.343 111.704C102.495 110.552 101.091 108.944 100.131 106.88C99.1709 104.816 98.6909 102.392 98.6909 99.608C98.6909 96.92 99.2549 94.544 100.383 92.48C101.511 90.416 103.059 88.82 105.027 87.692C106.995 86.54 109.203 85.964 111.651 85.964C113.499 85.964 115.719 86.252 118.311 86.828L119.499 87.044L119.139 93.524H116.727L115.827 88.952C115.491 88.664 114.903 88.424 114.063 88.232C113.247 88.016 112.239 87.908 111.039 87.908C109.503 87.908 108.135 88.352 106.935 89.24C105.735 90.104 104.787 91.388 104.091 93.092C103.419 94.796 103.083 96.836 103.083 99.212C103.083 101.468 103.383 103.52 103.983 105.368C104.583 107.216 105.495 108.692 106.719 109.796C107.943 110.876 109.455 111.416 111.255 111.416C112.527 111.416 113.499 111.308 114.171 111.092C114.867 110.876 115.455 110.564 115.935 110.156L117.447 106.628L119.715 106.916L118.851 112.028C118.347 112.052 117.603 112.22 116.619 112.532C115.755 112.796 114.915 113 114.099 113.144C113.307 113.312 112.311 113.396 111.111 113.396ZM131.462 88.16L125.27 88.376L124.01 95.9H121.634L122.246 86.252H144.674L145.106 95.9H142.838L141.65 88.376L135.422 88.16V110.876L140.534 111.236V113H126.782V111.236L131.462 110.876V88.16ZM158.512 113.396C156.064 113.396 153.988 112.832 152.284 111.704C150.604 110.576 149.332 108.992 148.468 106.952C147.604 104.888 147.172 102.5 147.172 99.788C147.172 97.028 147.688 94.604 148.72 92.516C149.776 90.428 151.216 88.82 153.04 87.692C154.864 86.54 156.916 85.964 159.196 85.964C162.94 85.964 165.796 87.152 167.764 89.528C169.756 91.88 170.752 95.144 170.752 99.32C170.752 102.128 170.212 104.6 169.132 106.736C168.076 108.848 166.612 110.492 164.74 111.668C162.892 112.82 160.816 113.396 158.512 113.396ZM158.98 87.836C156.652 87.836 154.816 88.856 153.472 90.896C152.128 92.912 151.456 95.876 151.456 99.788C151.456 103.388 152.104 106.244 153.4 108.356C154.72 110.444 156.556 111.488 158.908 111.488C161.212 111.488 163.036 110.444 164.38 108.356C165.748 106.268 166.432 103.268 166.432 99.356C166.432 95.732 165.784 92.912 164.488 90.896C163.192 88.856 161.356 87.836 158.98 87.836ZM182.585 91.724C182.585 96.044 182.333 99.86 181.829 103.172C181.349 106.46 180.617 108.956 179.633 110.66C179.129 111.524 178.553 112.16 177.905 112.568C177.257 112.976 176.489 113.18 175.601 113.18C174.449 113.18 173.597 113.12 173.045 113L172.793 110.084C173.345 110.156 174.245 110.192 175.493 110.192C175.949 110.192 176.345 110.096 176.681 109.904C177.017 109.688 177.329 109.328 177.617 108.824C179.441 105.992 180.353 100.16 180.353 91.328V88.484L176.213 88.052V86.252H197.021V88.052L193.673 88.484V110.876L197.237 111.236V113H186.149V111.236L189.857 110.84L189.893 88.484H182.585V91.724ZM210.497 86.252V88.052L206.969 88.484V106.556L209.921 102.128L220.289 89.456V88.484L217.085 88.052V86.252H226.985V88.052L224.105 88.484V110.876L227.165 111.236V113H217.121V111.236L220.289 110.876V92.552L217.625 96.728L206.969 109.58V110.876L210.353 111.236V113H200.201V111.236L203.189 110.876V88.484L200.309 88.052V86.252H210.497ZM256.676 110.84C256.676 111.128 256.532 112.652 256.244 115.412C255.956 118.196 255.788 119.624 255.74 119.696H253.436C253.436 119.24 253.364 118.052 253.22 116.132C253.076 114.236 252.968 113.192 252.896 113H230.216V111.236L233.564 110.804V88.484L230.54 88.052V86.252H240.872V88.052L237.344 88.484V110.948H248.684V88.484L245.912 88.052V86.252H255.452V88.052L252.5 88.484V110.84H256.676ZM271.357 107.456C271.261 107.648 270.973 108.332 270.493 109.508C270.013 110.66 269.329 111.596 268.441 112.316C267.553 113.036 266.521 113.396 265.345 113.396C264.721 113.396 264.097 113.336 263.473 113.216C262.873 113.12 262.381 112.988 261.997 112.82V110.264L264.553 110.3C265.657 110.3 266.473 110.084 267.001 109.652C267.529 109.196 267.985 108.392 268.369 107.24L259.297 88.484L257.353 88.052V86.252H267.073V88.052L263.545 88.484L269.341 101.012L270.421 104.288L271.609 100.976L276.181 88.484L273.121 88.052V86.252H280.825V88.052L278.953 88.484L271.357 107.456Z" fill="#313131"/>
<path d="M33.8593 127.116C34.2433 127.092 35.0113 126.948 36.1633 126.684C37.2433 126.444 38.1673 126.264 38.9353 126.144C39.7033 126.024 40.4473 125.964 41.1673 125.964C44.1673 125.964 46.4713 126.468 48.0793 127.476C49.6873 128.484 50.4913 130.008 50.4913 132.048C50.4913 133.968 49.8793 135.504 48.6553 136.656C47.4553 137.808 46.0033 138.552 44.2993 138.888C46.5313 138.936 48.2473 139.548 49.4473 140.724C50.6713 141.876 51.2833 143.352 51.2833 145.152C51.2833 147.744 50.4793 149.736 48.8713 151.128C47.2873 152.52 44.7553 153.216 41.2753 153.216C39.8353 153.216 38.5633 153.096 37.4593 152.856C36.3553 152.616 35.4793 152.4 34.8313 152.208C34.2073 151.992 33.8233 151.86 33.6793 151.812L34.3273 145.584H36.1273L37.1353 150.264C38.2873 150.888 39.8953 151.2 41.9593 151.2C43.5673 151.2 44.7793 150.72 45.5953 149.76C46.4353 148.8 46.8553 147.36 46.8553 145.44C46.8553 143.952 46.4113 142.704 45.5233 141.696C44.6353 140.688 43.1113 140.184 40.9513 140.184H38.4313V138.168H40.5193C41.5273 138.168 42.4753 137.964 43.3633 137.556C44.2753 137.148 45.0073 136.524 45.5593 135.684C46.1113 134.82 46.3873 133.776 46.3873 132.552C46.3873 130.944 45.9313 129.768 45.0193 129.024C44.1313 128.28 42.8953 127.908 41.3113 127.908C40.2553 127.908 39.3553 128.04 38.6113 128.304C37.8913 128.568 37.4113 128.904 37.1713 129.312L36.4873 132.66H34.2193L33.8593 127.116ZM57.7417 128.484L54.7897 128.052V126.252H73.1137L73.6177 131.832H71.5657L70.5217 128.34L61.5937 128.124V138.276L67.6057 138.168L68.1097 135.18H70.0897V143.46H68.1097L67.6057 140.364L61.5937 140.256V150.984L71.7457 150.624L73.6537 146.088L75.7777 146.736L74.7337 153H54.7537V151.236L57.7417 150.876V128.484ZM82.4509 128.484L78.5269 128.052V126.252H88.0669L93.1429 142.452L94.3309 147.024L95.4109 142.452L100.451 126.252H109.919V128.052L105.959 128.484L108.839 150.84L111.971 151.236V153H101.603V151.236L104.879 150.876L103.259 134.712L102.503 127.764L100.991 132.948L94.9789 151.776H92.6389L86.8069 134.532L84.6829 127.728L84.0349 134.712L82.5949 150.876L86.1589 151.236V153H76.7629V151.236L79.8229 150.876L82.4509 128.484ZM116.911 128.484L114.067 128.052V126.252H123.859V128.052L120.763 128.484V138.168H133.435V128.484L130.519 128.052V126.252H140.167V128.052L137.323 128.484V150.876L140.167 151.236V153H130.483V151.236L133.435 150.876V140.4H120.763V150.876L123.895 151.236V153H113.995V151.236L116.911 150.876V128.484ZM154.572 153.396C152.124 153.396 150.048 152.832 148.344 151.704C146.664 150.576 145.392 148.992 144.528 146.952C143.664 144.888 143.232 142.5 143.232 139.788C143.232 137.028 143.748 134.604 144.78 132.516C145.836 130.428 147.276 128.82 149.1 127.692C150.924 126.54 152.976 125.964 155.256 125.964C159 125.964 161.856 127.152 163.824 129.528C165.816 131.88 166.812 135.144 166.812 139.32C166.812 142.128 166.272 144.6 165.192 146.736C164.136 148.848 162.672 150.492 160.8 151.668C158.952 152.82 156.876 153.396 154.572 153.396ZM155.04 127.836C152.712 127.836 150.876 128.856 149.532 130.896C148.188 132.912 147.516 135.876 147.516 139.788C147.516 143.388 148.164 146.244 149.46 148.356C150.78 150.444 152.616 151.488 154.968 151.488C157.272 151.488 159.096 150.444 160.44 148.356C161.808 146.268 162.492 143.268 162.492 139.356C162.492 135.732 161.844 132.912 160.548 130.896C159.252 128.856 157.416 127.836 155.04 127.836ZM187.968 126.252L188.22 135.72H185.808L184.764 128.412L176.844 128.124V150.84L183.108 151.236V153H168.996V151.236L172.956 150.84V128.52L169.104 128.016V126.252H187.968ZM201.294 153.396C198.846 153.396 196.77 152.832 195.066 151.704C193.386 150.576 192.114 148.992 191.25 146.952C190.386 144.888 189.954 142.5 189.954 139.788C189.954 137.028 190.47 134.604 191.502 132.516C192.558 130.428 193.998 128.82 195.822 127.692C197.646 126.54 199.698 125.964 201.978 125.964C205.722 125.964 208.578 127.152 210.546 129.528C212.538 131.88 213.534 135.144 213.534 139.32C213.534 142.128 212.994 144.6 211.914 146.736C210.858 148.848 209.394 150.492 207.522 151.668C205.674 152.82 203.598 153.396 201.294 153.396ZM201.762 127.836C199.434 127.836 197.598 128.856 196.254 130.896C194.91 132.912 194.238 135.876 194.238 139.788C194.238 143.388 194.886 146.244 196.182 148.356C197.502 150.444 199.338 151.488 201.69 151.488C203.994 151.488 205.818 150.444 207.162 148.356C208.53 146.268 209.214 143.268 209.214 139.356C209.214 135.732 208.566 132.912 207.27 130.896C205.974 128.856 204.138 127.836 201.762 127.836ZM234.99 126.252V128.052L231.786 128.52V150.876H241.254V128.484L238.482 128.052V126.252H247.77V128.052L244.962 128.484V150.876H254.25V128.484L251.55 128.052V126.252H261.018V128.052L258.066 128.484V150.84L261.414 151.236V153H224.622V151.236L228.006 150.876V128.484L225.018 128.052V126.252H234.99ZM273.21 126.036H277.17L285.918 150.876L288.15 151.236V153H278.646V151.236L281.634 150.876L279.942 145.548H269.43L267.738 150.876L270.834 151.236V153H262.302V151.236L264.534 150.876L273.21 126.036ZM275.478 131.796L274.578 128.628L273.714 131.868L270.078 143.424H279.258L275.478 131.796ZM292.411 128.484L289.603 128.052V126.252H294.391C295.255 126.252 296.107 126.216 296.947 126.144C298.243 126.048 299.467 126 300.619 126C304.099 126.024 306.559 126.672 307.999 127.944C309.439 129.216 310.159 131.136 310.159 133.704C310.159 135.624 309.715 137.292 308.827 138.708C307.939 140.124 306.703 141.204 305.119 141.948C303.559 142.692 301.759 143.064 299.719 143.064C299.023 143.064 298.315 143.052 297.595 143.028C296.875 142.98 296.431 142.944 296.263 142.92V150.84L301.195 151.236V153H289.423V151.236L292.411 150.876V128.484ZM296.263 140.94C296.935 141.06 298.087 141.12 299.719 141.12C301.615 141.12 303.151 140.544 304.327 139.392C305.527 138.24 306.127 136.356 306.127 133.74C306.127 131.676 305.611 130.2 304.579 129.312C303.547 128.4 301.939 127.944 299.755 127.944C298.987 127.944 298.171 127.992 297.307 128.088C296.779 128.136 296.431 128.16 296.263 128.16V140.94ZM321.514 126.036H325.474L334.222 150.876L336.454 151.236V153H326.95V151.236L329.938 150.876L328.246 145.548H317.734L316.042 150.876L319.138 151.236V153H310.606V151.236L312.838 150.876L321.514 126.036ZM323.782 131.796L322.882 128.628L322.018 131.868L318.382 143.424H327.562L323.782 131.796Z" fill="#313131"/>
</svg>
