<svg width="185" height="39" viewBox="0 0 185 39" fill="none" xmlns="http://www.w3.org/2000/svg">
<path d="M5.27539 38.6113C2.41081 38.2207 0.669271 36.707 0.0507812 34.0703L0.0996094 33.5332C0.229818 33.1426 0.376302 32.7031 0.539062 32.2148C0.701823 31.6615 0.880859 31.1243 1.07617 30.6035C1.27148 30.0501 1.59701 29.5618 2.05273 29.1387C2.15039 28.8457 2.32943 28.4062 2.58984 27.8203C2.88281 27.2018 3.35482 26.2904 4.00586 25.0859C4.52669 24.1419 4.93359 23.3932 5.22656 22.8398C5.55208 22.2865 5.8125 21.8633 6.00781 21.5703C5.68229 20.9844 5.22656 20.4147 4.64062 19.8613C4.11979 18.8848 3.66406 17.957 3.27344 17.0781C2.91536 16.1667 2.63867 15.3529 2.44336 14.6367C2.41081 13.8555 2.2806 13.0579 2.05273 12.2441C1.95508 11.821 1.85742 11.3978 1.75977 10.9746C1.66211 10.5514 1.61328 10.112 1.61328 9.65625C1.48307 9.42839 1.36914 9.13542 1.27148 8.77734L1.36914 8.19141C1.5319 7.93099 1.56445 7.58919 1.4668 7.16602C1.40169 6.71029 1.30404 6.25456 1.17383 5.79883C1.07617 5.37565 0.978516 4.9362 0.880859 4.48047C0.815755 3.99219 0.799479 3.52018 0.832031 3.06445C0.864583 2.60872 0.978516 2.16927 1.17383 1.74609C1.40169 1.32292 1.77604 0.964844 2.29688 0.671875L2.78516 0.330078L3.27344 0.623047C3.63151 0.850911 3.97331 1.04622 4.29883 1.20898C4.62435 1.37174 4.94987 1.53451 5.27539 1.69727C5.66602 1.89258 6.05664 2.10417 6.44727 2.33203C6.83789 2.52734 7.26107 2.75521 7.7168 3.01562L8.20508 3.35742L8.15625 3.89453C8.15625 3.95964 8.17253 4.04102 8.20508 4.13867C8.23763 4.23633 8.28646 4.31771 8.35156 4.38281L8.88867 4.5293L8.9375 5.21289V5.79883C8.9375 6.0918 8.95378 6.30339 8.98633 6.43359C9.01888 6.53125 9.08398 6.64518 9.18164 6.77539L9.42578 7.41016C9.42578 7.99609 9.47461 8.51693 9.57227 8.97266C9.66992 9.42839 9.78385 9.88411 9.91406 10.3398C10.0768 10.7956 10.207 11.2676 10.3047 11.7559C10.4023 12.2116 10.4186 12.7161 10.3535 13.2695C10.5488 13.1719 10.7441 13.0254 10.9395 12.8301C11.0046 12.765 11.0697 12.6999 11.1348 12.6348C11.2324 12.5697 11.3301 12.5046 11.4277 12.4395L14.8457 7.80078L14.748 7.21484L15.9688 6.04297C16.2943 5.78255 16.6035 5.52214 16.8965 5.26172C17.1895 4.96875 17.4336 4.64323 17.6289 4.28516L17.9219 3.8457C19.3867 1.89258 21.2747 0.688151 23.5859 0.232422L24.416 0.0371094L24.6602 0.818359C24.8229 1.27409 25.1322 1.68099 25.5879 2.03906C26.0762 2.36458 26.597 2.6901 27.1504 3.01562L27.6875 3.35742C27.8828 3.74805 27.9805 4.04102 27.9805 4.23633C27.9805 4.43164 27.9642 4.5944 27.9316 4.72461L28.1758 5.35938C27.8177 6.30339 27.4271 6.98698 27.0039 7.41016C26.5807 7.80078 26.1413 8.17513 25.6855 8.5332C25.3275 8.82617 25.002 9.11914 24.709 9.41211C24.416 9.70508 24.1882 10.0306 24.0254 10.3887L23.6348 10.877C22.821 11.3001 22.3001 11.9186 22.0723 12.7324L21.877 13.416H21.1445C21.112 13.416 21.0306 13.4974 20.9004 13.6602C20.7702 13.7904 20.5749 14.1322 20.3145 14.6855C20.0215 15.0762 19.8099 15.3366 19.6797 15.4668C19.582 15.5645 19.5007 15.6458 19.4355 15.7109C19.3704 15.8737 19.3053 16.0202 19.2402 16.1504C19.2077 16.2806 19.1589 16.4434 19.0938 16.6387L18.8008 17.0293C18.5078 17.2897 18.2962 17.5501 18.166 17.8105C18.0358 18.0384 17.8893 18.3151 17.7266 18.6406C17.5964 18.9336 17.4499 19.2428 17.2871 19.5684C17.1243 19.8613 16.8965 20.1543 16.6035 20.4473L16.7012 20.9844L16.3105 21.3262C16.0501 21.554 15.8223 21.847 15.627 22.2051C15.4316 22.5306 15.2363 22.8724 15.041 23.2305C14.8457 23.6211 14.6341 24.0117 14.4062 24.4023C14.1784 24.793 13.8854 25.151 13.5273 25.4766C13.2995 26.0625 13.0879 26.5182 12.8926 26.8438C12.7298 27.1693 12.4368 27.5599 12.0137 28.0156C11.623 29.5781 10.6953 31.2546 9.23047 33.0449C9.19792 33.403 9.08398 33.7611 8.88867 34.1191C8.72591 34.4447 8.54688 34.7539 8.35156 35.0469C8.28646 35.1771 8.20508 35.3236 8.10742 35.4863C8.04232 35.6165 7.99349 35.7142 7.96094 35.7793L7.81445 36.3164C7.61914 36.6745 7.40755 36.9674 7.17969 37.1953C6.98438 37.4232 6.78906 37.6348 6.59375 37.8301C6.49609 37.8952 6.39844 37.9766 6.30078 38.0742C6.23568 38.1719 6.17057 38.2533 6.10547 38.3184L5.27539 38.6113ZM20.4121 32.3613L21.0469 31.873L21.0957 30.8477C21.9095 28.862 22.7396 26.9577 23.5859 25.1348C24.4648 23.3118 25.3763 21.4401 26.3203 19.5195C26.6133 18.901 26.9062 18.2826 27.1992 17.6641C27.5247 17.0456 27.834 16.4108 28.127 15.7598C28.0944 15.6296 28.0781 15.4993 28.0781 15.3691C28.0781 15.2064 28.1107 15.0273 28.1758 14.832C28.6315 14.181 28.9896 13.5951 29.25 13.0742C29.543 12.5534 29.8197 12.0163 30.0801 11.4629C30.373 10.8118 30.6823 10.1608 31.0078 9.50977C31.3659 8.85872 31.8053 8.22396 32.3262 7.60547L32.668 7.11719L33.2051 7.16602C33.3353 7.10091 33.4655 7.05208 33.5957 7.01953C33.7585 6.95443 33.9538 6.92188 34.1816 6.92188L35.0605 7.06836C36.1348 6.58008 37.0788 5.88021 37.8926 4.96875C38.7389 4.02474 39.5853 2.90169 40.4316 1.59961L41.0176 0.769531L41.7988 1.25781C41.9616 1.35547 42.222 1.45312 42.5801 1.55078C42.9382 1.64844 43.3125 1.76237 43.7031 1.89258C44.3867 2.05534 45.054 2.25065 45.7051 2.47852C46.3561 2.67383 46.8607 2.95052 47.2188 3.30859L47.4629 3.74805C47.528 4.10612 47.5768 4.43164 47.6094 4.72461C47.6745 5.01758 47.7396 5.31055 47.8047 5.60352C47.9349 6.28711 48.0488 6.9707 48.1465 7.6543C48.2441 8.30534 48.3092 9.03776 48.3418 9.85156C48.5046 10.5026 48.651 11.1699 48.7812 11.8535C48.944 12.5046 49.0905 13.1556 49.2207 13.8066C49.3835 14.7507 49.5625 15.6621 49.7578 16.541C49.9531 17.3874 50.2135 18.2012 50.5391 18.9824C50.8646 18.9824 51.0599 18.9987 51.125 19.0312C51.5156 18.8685 51.9714 18.7708 52.4922 18.7383L53.127 18.6895L53.3223 19.2754C53.3874 19.373 53.4688 19.4707 53.5664 19.5684C53.6641 19.666 53.778 19.7637 53.9082 19.8613C54.429 19.8939 54.8034 20.0078 55.0312 20.2031C55.2917 20.3659 55.5033 20.5286 55.666 20.6914C55.7311 20.7565 55.8125 20.8379 55.9102 20.9355C56.0078 21.0007 56.0892 21.0495 56.1543 21.082L57.0332 21.4238L56.5449 22.3516C56.1868 23.0352 55.6335 23.7025 54.8848 24.3535C54.1686 25.0046 53.3548 25.5417 52.4434 25.9648C52.5085 26.1927 52.541 26.4043 52.541 26.5996C52.5736 26.7949 52.6224 27.0228 52.6875 27.2832C52.8177 27.9342 52.9154 28.6178 52.9805 29.334C53.0781 30.0176 53.0781 30.7337 52.9805 31.4824C52.6549 32.3288 52.2643 33.0938 51.8086 33.7773C51.3854 34.4284 50.8646 35.0306 50.2461 35.584C49.6602 36.1048 48.9928 36.5443 48.2441 36.9023C47.4954 37.2279 46.7142 37.4069 45.9004 37.4395C45.4447 37.3418 45.1029 37.2279 44.875 37.0977C44.6797 36.9674 44.5007 36.8372 44.3379 36.707C44.0775 36.5117 43.8659 36.3815 43.7031 36.3164L43.0684 36.0234L43.2637 35.291C43.3613 35.0306 43.3451 34.8027 43.2148 34.6074C43.1172 34.4121 42.8893 34.1517 42.5312 33.8262C42.401 33.7285 42.2871 33.6309 42.1895 33.5332C42.0918 33.403 41.9779 33.2728 41.8477 33.1426L40.8711 32.0195L42.4824 31.5801C43.459 31.3197 44.11 30.9941 44.4355 30.6035C44.7611 30.1803 44.8913 29.4479 44.8262 28.4062C44.0124 28.2435 43.3451 28.2272 42.8242 28.3574C42.3034 28.4551 41.7826 28.569 41.2617 28.6992C40.513 28.8945 39.7806 29.0736 39.0645 29.2363C38.3483 29.3665 37.5671 29.4316 36.7207 29.4316C36.1673 29.4316 35.5814 29.3828 34.9629 29.2852L34.4258 29.2363L34.2793 28.6992C34.2793 28.6341 34.2305 28.569 34.1328 28.5039C34.0677 28.4062 34.0026 28.3249 33.9375 28.2598C33.7747 28.0645 33.5794 27.804 33.3516 27.4785C33.1237 27.153 33.0749 26.7461 33.2051 26.2578C32.9772 25.8997 32.847 25.5254 32.8145 25.1348C32.6842 25.3952 32.5703 25.6556 32.4727 25.916C32.4076 26.1439 32.3424 26.3717 32.2773 26.5996L32.082 27.2344L31.4473 27.332C31.3822 27.3971 31.3171 27.4948 31.252 27.625C31.2194 27.7552 31.2194 27.8529 31.252 27.918L31.4473 28.4551L30.959 28.8945C30.8939 28.9922 30.8125 29.0736 30.7148 29.1387C30.6172 29.2038 30.5358 29.2689 30.4707 29.334C30.4056 29.6921 30.3079 30.0339 30.1777 30.3594C30.0801 30.6849 29.9661 31.0104 29.8359 31.3359C29.6732 31.8568 29.5104 32.3613 29.3477 32.8496C29.2174 33.3379 29.1523 33.8262 29.1523 34.3145L28.957 34.9492C28.7943 35.2096 28.5827 35.4049 28.3223 35.5352C28.0944 35.6654 27.8665 35.7793 27.6387 35.877C27.3132 36.0072 27.0853 36.1374 26.9551 36.2676L26.8086 36.9023L26.0762 37C25.653 37.0977 25.3438 37.1628 25.1484 37.1953C24.9857 37.2279 24.7904 37.2441 24.5625 37.2441L23.9277 37.1953C23.5371 36.8047 23.2116 36.5117 22.9512 36.3164C22.7233 36.0885 22.4466 35.8932 22.1211 35.7305L21.8281 35.3398C21.6979 35.0794 21.6165 34.8516 21.584 34.6562C21.5514 34.4284 21.5026 34.2005 21.4375 33.9727C21.3724 33.5495 21.2747 33.2565 21.1445 33.0938L20.4121 32.3613ZM35.9883 19.666C35.5326 20.3171 35.0931 21.0007 34.6699 21.7168C34.8978 21.6842 35.1094 21.668 35.3047 21.668C35.5326 21.668 35.7604 21.6517 35.9883 21.6191C37.1276 21.554 38.1855 21.4727 39.1621 21.375C40.1387 21.2773 41.1966 21.1146 42.3359 20.8867C42.0755 19.6823 41.7826 18.4616 41.457 17.2246C41.1641 15.9551 40.8385 14.6855 40.4805 13.416L40.2363 13.9043C39.4225 14.7832 38.6413 15.7272 37.8926 16.7363C37.1439 17.7454 36.5254 18.7057 36.0371 19.6172L35.9883 19.666ZM61.1836 37.6836C60.8581 37.6836 60.3535 37.6348 59.6699 37.5371C59.1491 36.9837 58.6771 36.235 58.2539 35.291C57.8633 34.3145 57.554 33.2891 57.3262 32.2148C57.1309 31.1081 57.0332 30.0176 57.0332 28.9434C57.0658 27.8366 57.2611 26.86 57.6191 26.0137C57.6191 25.9811 57.7656 25.5905 58.0586 24.8418C58.3841 24.0931 58.791 23.1491 59.2793 22.0098C59.7676 20.8379 60.321 19.5521 60.9395 18.1523C61.5579 16.7201 62.1764 15.3203 62.7949 13.9531C63.4134 12.5859 63.9993 11.349 64.5527 10.2422C65.1387 9.10286 65.6432 8.22396 66.0664 7.60547C66.3594 7.14974 66.6198 6.71029 66.8477 6.28711C67.1081 5.86393 67.3522 5.47331 67.5801 5.11523C67.9382 4.5293 68.2637 3.99219 68.5566 3.50391C68.8822 2.98307 69.224 2.52734 69.582 2.13672C69.9727 1.71354 70.3958 1.35547 70.8516 1.0625C71.3073 0.736979 71.8607 0.460286 72.5117 0.232422C72.9023 0.395182 73.2441 0.574219 73.5371 0.769531C73.8301 0.932292 74.0905 1.14388 74.3184 1.4043L74.4648 2.08789C74.5299 2.31576 74.6276 2.47852 74.7578 2.57617C74.9206 2.64128 75.0508 2.67383 75.1484 2.67383C75.5716 2.77148 75.9297 2.88542 76.2227 3.01562C76.5482 3.11328 76.89 3.17839 77.248 3.21094C77.3783 3.40625 77.4922 3.60156 77.5898 3.79688C77.7201 3.99219 77.8503 4.17122 77.9805 4.33398C78.6315 5.27799 79.1686 6.18945 79.5918 7.06836C80.015 7.94727 80.015 8.90755 79.5918 9.94922L79.6406 10.4863C79.8034 10.7142 79.8848 10.9258 79.8848 11.1211C79.8848 11.3164 79.8522 11.5931 79.7871 11.9512C79.7546 12.2116 79.722 12.5046 79.6895 12.8301C79.6895 13.123 79.7383 13.4486 79.8359 13.8066L80.1777 14.1973C80.6986 14.4577 81.2031 14.5879 81.6914 14.5879C82.3424 14.5879 82.9284 14.4414 83.4492 14.1484C83.9701 13.8555 84.4583 13.5625 84.9141 13.2695C85.2721 13.0091 85.5977 12.7975 85.8906 12.6348C86.2161 12.472 86.5254 12.3581 86.8184 12.293C87.502 11.6419 88.1204 11.0723 88.6738 10.584C89.2598 10.0632 89.862 9.54232 90.4805 9.02148C91.6523 8.07747 92.7917 7.06836 93.8984 5.99414C95.0052 4.88737 95.8841 3.52018 96.5352 1.89258C96.8932 1.66471 97.3001 1.55078 97.7559 1.55078C98.2116 1.55078 98.6673 1.64844 99.123 1.84375C99.5788 2.00651 100.035 2.20182 100.49 2.42969C100.588 2.49479 100.669 2.54362 100.734 2.57617C100.832 2.60872 100.93 2.65755 101.027 2.72266C101.027 3.08073 101.174 3.40625 101.467 3.69922C101.63 3.82943 101.743 3.91081 101.809 3.94336C101.874 3.97591 101.939 4.00846 102.004 4.04102C102.264 4.20378 102.476 4.35026 102.639 4.48047C102.834 4.61068 102.98 4.78971 103.078 5.01758C103.371 5.89648 103.859 6.58008 104.543 7.06836C104.478 7.42643 104.494 7.78451 104.592 8.14258C104.689 8.4681 104.803 8.79362 104.934 9.11914C104.999 9.24935 105.048 9.37956 105.08 9.50977C105.113 9.60742 105.161 9.73763 105.227 9.90039L104.152 9.80273L104.299 10.877C104.396 11.4303 104.348 12.0488 104.152 12.7324C103.99 13.416 103.794 13.9531 103.566 14.3438C103.632 15.3203 103.664 16.1016 103.664 16.6875C103.664 17.2409 103.632 17.7617 103.566 18.25C103.501 18.7383 103.387 19.2103 103.225 19.666C103.094 20.0892 102.915 20.5449 102.688 21.0332C102.818 23.5072 102.525 25.7695 101.809 27.8203C101.125 29.8711 100.376 31.7917 99.5625 33.582C99.4648 33.8099 99.3672 34.0215 99.2695 34.2168C99.1719 34.4121 99.0905 34.6074 99.0254 34.8027C98.6673 34.9004 98.3418 35.0143 98.0488 35.1445C97.7559 35.2747 97.4792 35.4212 97.2188 35.584C96.8607 35.8118 96.5026 36.0072 96.1445 36.1699C95.7865 36.3001 95.4121 36.3652 95.0215 36.3652C93.459 35.2259 92.6452 33.2565 92.5801 30.457C92.5475 27.6576 93.1497 24.0931 94.3867 19.7637C94.6146 19.6009 94.7122 19.3568 94.6797 19.0312V18.4941L94.1914 18.4453C94.0286 18.4453 93.8822 18.4616 93.752 18.4941C93.6217 18.5267 93.5241 18.6732 93.459 18.9336C92.4173 19.6823 91.278 20.4635 90.041 21.2773C88.8366 22.0586 87.5833 22.791 86.2812 23.4746C84.9792 24.1257 83.6445 24.679 82.2773 25.1348C80.9427 25.5579 79.6406 25.7695 78.3711 25.7695C75.1159 25.7695 72.6582 24.1094 70.998 20.7891L70.5586 19.9102L70.0703 20.6914C69.9727 20.8542 69.7936 21.1797 69.5332 21.668C69.3053 22.1237 69.0612 22.6608 68.8008 23.2793C68.5729 23.8978 68.3613 24.5326 68.166 25.1836C68.0033 25.8346 67.9544 26.4043 68.0195 26.8926C67.6289 27.2507 67.2383 27.6576 66.8477 28.1133C66.4896 28.569 66.2292 29.0898 66.0664 29.6758C66.0013 29.8385 65.985 30.0013 66.0176 30.1641C66.0501 30.2943 66.099 30.4408 66.1641 30.6035C66.1315 30.8314 66.0664 30.9941 65.9688 31.0918C65.8711 31.1895 65.7572 31.2871 65.627 31.3848C65.4642 31.5475 65.3014 31.7266 65.1387 31.9219C64.9759 32.0846 64.8294 32.2799 64.6992 32.5078C64.6341 32.7031 64.5853 32.9147 64.5527 33.1426C64.5202 33.3379 64.4876 33.5169 64.4551 33.6797C64.4551 34.0378 64.4062 34.2819 64.3086 34.4121C63.9831 35.0957 63.6901 35.6654 63.4297 36.1211C63.2018 36.5443 62.974 36.8698 62.7461 37.0977C62.5182 37.3255 62.2741 37.472 62.0137 37.5371C61.7858 37.6348 61.5091 37.6836 61.1836 37.6836ZM109.865 37.6836C109.54 37.6836 109.035 37.6348 108.352 37.5371C107.831 36.9837 107.359 36.235 106.936 35.291C106.545 34.3145 106.236 33.2891 106.008 32.2148C105.812 31.1081 105.715 30.0176 105.715 28.9434C105.747 27.8366 105.943 26.86 106.301 26.0137C106.301 25.9811 106.447 25.5905 106.74 24.8418C107.066 24.0931 107.473 23.1491 107.961 22.0098C108.449 20.8379 109.003 19.5521 109.621 18.1523C110.24 16.7201 110.858 15.3203 111.477 13.9531C112.095 12.5859 112.681 11.349 113.234 10.2422C113.82 9.10286 114.325 8.22396 114.748 7.60547C115.041 7.14974 115.301 6.71029 115.529 6.28711C115.79 5.86393 116.034 5.47331 116.262 5.11523C116.62 4.5293 116.945 3.99219 117.238 3.50391C117.564 2.98307 117.906 2.52734 118.264 2.13672C118.654 1.71354 119.077 1.35547 119.533 1.0625C119.989 0.736979 120.542 0.460286 121.193 0.232422C121.584 0.395182 121.926 0.574219 122.219 0.769531C122.512 0.932292 122.772 1.14388 123 1.4043L123.146 2.08789C123.212 2.31576 123.309 2.47852 123.439 2.57617C123.602 2.64128 123.732 2.67383 123.83 2.67383C124.253 2.77148 124.611 2.88542 124.904 3.01562C125.23 3.11328 125.572 3.17839 125.93 3.21094C126.06 3.40625 126.174 3.60156 126.271 3.79688C126.402 3.99219 126.532 4.17122 126.662 4.33398C127.313 5.27799 127.85 6.18945 128.273 7.06836C128.697 7.94727 128.697 8.90755 128.273 9.94922L128.322 10.4863C128.485 10.7142 128.566 10.9258 128.566 11.1211C128.566 11.3164 128.534 11.5931 128.469 11.9512C128.436 12.2116 128.404 12.5046 128.371 12.8301C128.371 13.123 128.42 13.4486 128.518 13.8066L128.859 14.1973C129.38 14.4577 129.885 14.5879 130.373 14.5879C131.024 14.5879 131.61 14.4414 132.131 14.1484C132.652 13.8555 133.14 13.5625 133.596 13.2695C133.954 13.0091 134.279 12.7975 134.572 12.6348C134.898 12.472 135.207 12.3581 135.5 12.293C136.184 11.6419 136.802 11.0723 137.355 10.584C137.941 10.0632 138.544 9.54232 139.162 9.02148C140.334 8.07747 141.473 7.06836 142.58 5.99414C143.687 4.88737 144.566 3.52018 145.217 1.89258C145.575 1.66471 145.982 1.55078 146.438 1.55078C146.893 1.55078 147.349 1.64844 147.805 1.84375C148.26 2.00651 148.716 2.20182 149.172 2.42969C149.27 2.49479 149.351 2.54362 149.416 2.57617C149.514 2.60872 149.611 2.65755 149.709 2.72266C149.709 3.08073 149.855 3.40625 150.148 3.69922C150.311 3.82943 150.425 3.91081 150.49 3.94336C150.555 3.97591 150.62 4.00846 150.686 4.04102C150.946 4.20378 151.158 4.35026 151.32 4.48047C151.516 4.61068 151.662 4.78971 151.76 5.01758C152.053 5.89648 152.541 6.58008 153.225 7.06836C153.16 7.42643 153.176 7.78451 153.273 8.14258C153.371 8.4681 153.485 8.79362 153.615 9.11914C153.68 9.24935 153.729 9.37956 153.762 9.50977C153.794 9.60742 153.843 9.73763 153.908 9.90039L152.834 9.80273L152.98 10.877C153.078 11.4303 153.029 12.0488 152.834 12.7324C152.671 13.416 152.476 13.9531 152.248 14.3438C152.313 15.3203 152.346 16.1016 152.346 16.6875C152.346 17.2409 152.313 17.7617 152.248 18.25C152.183 18.7383 152.069 19.2103 151.906 19.666C151.776 20.0892 151.597 20.5449 151.369 21.0332C151.499 23.5072 151.206 25.7695 150.49 27.8203C149.807 29.8711 149.058 31.7917 148.244 33.582C148.146 33.8099 148.049 34.0215 147.951 34.2168C147.854 34.4121 147.772 34.6074 147.707 34.8027C147.349 34.9004 147.023 35.0143 146.73 35.1445C146.438 35.2747 146.161 35.4212 145.9 35.584C145.542 35.8118 145.184 36.0072 144.826 36.1699C144.468 36.3001 144.094 36.3652 143.703 36.3652C142.141 35.2259 141.327 33.2565 141.262 30.457C141.229 27.6576 141.831 24.0931 143.068 19.7637C143.296 19.6009 143.394 19.3568 143.361 19.0312V18.4941L142.873 18.4453C142.71 18.4453 142.564 18.4616 142.434 18.4941C142.303 18.5267 142.206 18.6732 142.141 18.9336C141.099 19.6823 139.96 20.4635 138.723 21.2773C137.518 22.0586 136.265 22.791 134.963 23.4746C133.661 24.1257 132.326 24.679 130.959 25.1348C129.624 25.5579 128.322 25.7695 127.053 25.7695C123.798 25.7695 121.34 24.1094 119.68 20.7891L119.24 19.9102L118.752 20.6914C118.654 20.8542 118.475 21.1797 118.215 21.668C117.987 22.1237 117.743 22.6608 117.482 23.2793C117.255 23.8978 117.043 24.5326 116.848 25.1836C116.685 25.8346 116.636 26.4043 116.701 26.8926C116.311 27.2507 115.92 27.6576 115.529 28.1133C115.171 28.569 114.911 29.0898 114.748 29.6758C114.683 29.8385 114.667 30.0013 114.699 30.1641C114.732 30.2943 114.781 30.4408 114.846 30.6035C114.813 30.8314 114.748 30.9941 114.65 31.0918C114.553 31.1895 114.439 31.2871 114.309 31.3848C114.146 31.5475 113.983 31.7266 113.82 31.9219C113.658 32.0846 113.511 32.2799 113.381 32.5078C113.316 32.7031 113.267 32.9147 113.234 33.1426C113.202 33.3379 113.169 33.5169 113.137 33.6797C113.137 34.0378 113.088 34.2819 112.99 34.4121C112.665 35.0957 112.372 35.6654 112.111 36.1211C111.883 36.5443 111.656 36.8698 111.428 37.0977C111.2 37.3255 110.956 37.472 110.695 37.5371C110.467 37.6348 110.191 37.6836 109.865 37.6836ZM161.428 38.6113C158.563 38.2207 156.822 36.707 156.203 34.0703L156.252 33.5332C156.382 33.1426 156.529 32.7031 156.691 32.2148C156.854 31.6615 157.033 31.1243 157.229 30.6035C157.424 30.0501 157.749 29.5618 158.205 29.1387C158.303 28.8457 158.482 28.4062 158.742 27.8203C159.035 27.2018 159.507 26.2904 160.158 25.0859C160.679 24.1419 161.086 23.3932 161.379 22.8398C161.704 22.2865 161.965 21.8633 162.16 21.5703C161.835 20.9844 161.379 20.4147 160.793 19.8613C160.272 18.8848 159.816 17.957 159.426 17.0781C159.068 16.1667 158.791 15.3529 158.596 14.6367C158.563 13.8555 158.433 13.0579 158.205 12.2441C158.107 11.821 158.01 11.3978 157.912 10.9746C157.814 10.5514 157.766 10.112 157.766 9.65625C157.635 9.42839 157.521 9.13542 157.424 8.77734L157.521 8.19141C157.684 7.93099 157.717 7.58919 157.619 7.16602C157.554 6.71029 157.456 6.25456 157.326 5.79883C157.229 5.37565 157.131 4.9362 157.033 4.48047C156.968 3.99219 156.952 3.52018 156.984 3.06445C157.017 2.60872 157.131 2.16927 157.326 1.74609C157.554 1.32292 157.928 0.964844 158.449 0.671875L158.938 0.330078L159.426 0.623047C159.784 0.850911 160.126 1.04622 160.451 1.20898C160.777 1.37174 161.102 1.53451 161.428 1.69727C161.818 1.89258 162.209 2.10417 162.6 2.33203C162.99 2.52734 163.413 2.75521 163.869 3.01562L164.357 3.35742L164.309 3.89453C164.309 3.95964 164.325 4.04102 164.357 4.13867C164.39 4.23633 164.439 4.31771 164.504 4.38281L165.041 4.5293L165.09 5.21289V5.79883C165.09 6.0918 165.106 6.30339 165.139 6.43359C165.171 6.53125 165.236 6.64518 165.334 6.77539L165.578 7.41016C165.578 7.99609 165.627 8.51693 165.725 8.97266C165.822 9.42839 165.936 9.88411 166.066 10.3398C166.229 10.7956 166.359 11.2676 166.457 11.7559C166.555 12.2116 166.571 12.7161 166.506 13.2695C166.701 13.1719 166.896 13.0254 167.092 12.8301C167.157 12.765 167.222 12.6999 167.287 12.6348C167.385 12.5697 167.482 12.5046 167.58 12.4395L170.998 7.80078L170.9 7.21484L172.121 6.04297C172.447 5.78255 172.756 5.52214 173.049 5.26172C173.342 4.96875 173.586 4.64323 173.781 4.28516L174.074 3.8457C175.539 1.89258 177.427 0.688151 179.738 0.232422L180.568 0.0371094L180.812 0.818359C180.975 1.27409 181.285 1.68099 181.74 2.03906C182.229 2.36458 182.749 2.6901 183.303 3.01562L183.84 3.35742C184.035 3.74805 184.133 4.04102 184.133 4.23633C184.133 4.43164 184.117 4.5944 184.084 4.72461L184.328 5.35938C183.97 6.30339 183.579 6.98698 183.156 7.41016C182.733 7.80078 182.294 8.17513 181.838 8.5332C181.48 8.82617 181.154 9.11914 180.861 9.41211C180.568 9.70508 180.34 10.0306 180.178 10.3887L179.787 10.877C178.973 11.3001 178.452 11.9186 178.225 12.7324L178.029 13.416H177.297C177.264 13.416 177.183 13.4974 177.053 13.6602C176.923 13.7904 176.727 14.1322 176.467 14.6855C176.174 15.0762 175.962 15.3366 175.832 15.4668C175.734 15.5645 175.653 15.6458 175.588 15.7109C175.523 15.8737 175.458 16.0202 175.393 16.1504C175.36 16.2806 175.311 16.4434 175.246 16.6387L174.953 17.0293C174.66 17.2897 174.449 17.5501 174.318 17.8105C174.188 18.0384 174.042 18.3151 173.879 18.6406C173.749 18.9336 173.602 19.2428 173.439 19.5684C173.277 19.8613 173.049 20.1543 172.756 20.4473L172.854 20.9844L172.463 21.3262C172.202 21.554 171.975 21.847 171.779 22.2051C171.584 22.5306 171.389 22.8724 171.193 23.2305C170.998 23.6211 170.786 24.0117 170.559 24.4023C170.331 24.793 170.038 25.151 169.68 25.4766C169.452 26.0625 169.24 26.5182 169.045 26.8438C168.882 27.1693 168.589 27.5599 168.166 28.0156C167.775 29.5781 166.848 31.2546 165.383 33.0449C165.35 33.403 165.236 33.7611 165.041 34.1191C164.878 34.4447 164.699 34.7539 164.504 35.0469C164.439 35.1771 164.357 35.3236 164.26 35.4863C164.195 35.6165 164.146 35.7142 164.113 35.7793L163.967 36.3164C163.771 36.6745 163.56 36.9674 163.332 37.1953C163.137 37.4232 162.941 37.6348 162.746 37.8301C162.648 37.8952 162.551 37.9766 162.453 38.0742C162.388 38.1719 162.323 38.2533 162.258 38.3184L161.428 38.6113Z" fill="#F2F0E5"/>
</svg>
